<?xml version="1.0" encoding="utf-8"?>
<!-- Generator: Adobe Illustrator 18.0.0, SVG Export Plug-In . SVG Version: 6.00 Build 0)  -->
<!DOCTYPE svg PUBLIC "-//W3C//DTD SVG 1.0//EN" "http://www.w3.org/TR/2001/REC-SVG-20010904/DTD/svg10.dtd">
<svg version="1.0" id="Layer_1" xmlns="http://www.w3.org/2000/svg" xmlns:xlink="http://www.w3.org/1999/xlink" x="0px" y="0px"
	 viewBox="0 0 1286.1 523.1" style="enable-background:new 0 0 1286.1 523.1;" xml:space="preserve">
<style type="text/css">
	.st0{fill:#FFFFFF;}
</style>
<g>
	<g>
		<path class="st0" d="M0,261.6C-0.6,118.4,116.5-1.7,264.8,0c142.2,1.7,258.8,117.4,258.1,262.8c-0.7,145.9-120,260.9-263.4,260.2
			C116.6,522.3,0,405.4,0,261.6z M265,501.5c132.1-0.5,237.2-106.1,239.9-234.6C507.8,130.6,398,23.3,268.3,21.6
			C137,19.8,25.4,125.7,25,261.4C24.7,393.4,132.9,501.5,265,501.5z"/>
		<path class="st0" d="M262.7,33.6c126-0.1,228.3,102,228.2,228c-0.1,124.2-99.6,227.7-227.8,227.9C134.5,489.6,34.8,385.4,35,261.4
			C35.2,135.4,136.7,33.7,262.7,33.6z M262.7,38.7c-122.4,0-222.6,99.9-222.7,222.5C40,383.4,138.5,484.4,263.1,484.3
			c123.6-0.1,222.5-99.8,222.7-223C486,138.5,385.5,38.7,262.7,38.7z"/>
		<path class="st0" d="M262.1,462.3c-40.9,0.4-70.4-11.9-98.6-27.7c-23.9-13.4-45-30.8-61.6-52.5c-8.9-11.6-15.1-25.4-21-39
			c-14.7-34.1-20.3-69.9-17.1-106.9c2.1-24.1,11.5-46,22.5-67.1c14.2-27.2,33-51.1,57.3-69.7c12-9.1,26.4-15.3,40.4-21.3
			c32.8-14.2,67.4-19.2,103-17c21.3,1.3,40.7,9.2,59.7,18c31,14.4,57.7,34.8,78.9,61.5c8.7,11,14.6,24.6,20.4,37.6
			c14.9,33.8,20.3,69.5,18,106.3c-1.2,18.9-7.9,36.3-15.2,53.4c-14.5,33.8-36.2,62.6-64.8,85.6c-14.5,11.7-32,18.9-49.6,25.2
			C308.4,458,281.9,462.6,262.1,462.3z M142.1,106.9c-4.9,4.7-9.2,8.6-13.2,12.7c-29.6,30.3-49,66.1-58.8,107.2
			c-0.8,3.2-0.3,5.2,2.4,7.2c9.7,7.3,18.9,15.4,29,22c34.2,22.1,72.1,34.7,112.2,40.9c8.1,1.3,16.3,2,25.9,3.2
			C185.1,246,149.3,184.2,142.1,106.9z M240.3,456.7c20.7,1.1,40.3,0.1,59.6-3.7c27.4-5.5,52.9-15.6,76.4-30.6
			c1.4-0.9,3-3.4,2.8-4.9c-1.3-12.5-2.1-25.2-4.8-37.5c-8.3-38.6-25.5-73.3-48.4-105.3c-5.4-7.5-11.2-14.6-16.9-21.9
			C307.9,328.1,289.8,397.2,240.3,456.7z M385.2,415c0.7-0.3,1.2-0.3,1.6-0.6c4.2-4,8.6-7.9,12.6-12.1c29.4-30.4,48.8-66.3,58-107.6
			c0.3-1.5-0.4-4.1-1.5-4.9c-11.3-8.8-22.2-18.2-34.3-25.7c-34.7-21.6-73-33.3-113.3-39.1c-6.3-0.9-12.6-1.4-20.2-2.2
			C342.3,276.8,378.1,338.7,385.2,415z M286.5,66.8c-0.8-0.4-0.9-0.6-1-0.6c-48.7-2.8-93.7,9.1-135,35c-1.4,0.9-2.7,3.5-2.5,5.2
			c1.3,11.9,2.1,23.9,4.6,35.6c10.4,47.5,33.1,88.9,64,126c0.7,0.9,1.8,1.6,3,2.7C219,194.7,237.8,126,286.5,66.8z M301.6,286.3
			c-53.9,54-115.7,89.7-191.9,96.8c0.4,0.8,0.5,1.2,0.7,1.4c32.5,36.4,72.5,60,120,70.8c1.5,0.3,4-1,5.2-2.3
			c24.2-26.7,40.5-57.9,51.5-92C294.8,337.1,299.6,312.7,301.6,286.3z M68.7,238.6c-0.2,2.5-0.6,4.4-0.5,6.3
			c0.6,13.5,0.4,27,2.1,40.3c4.1,32.3,15.3,62.2,32.8,89.7c0.8,1.3,3.1,2.7,4.5,2.6c10.9-1.1,21.9-1.9,32.6-4.1
			c48.7-10,91-32.9,129.1-64.3c0.9-0.8,1.6-1.7,2.7-2.9C196.7,306.1,127.9,287.8,68.7,238.6z M254.5,216.7
			c76.1,0,144.9,18.4,204.2,67.6c0.1-2.1,0.3-3.3,0.3-4.6c0.8-18.5-0.4-37-4.1-55.2c-5.5-27.2-15.5-52.6-30.4-76.1
			c-0.9-1.4-2.9-3.2-4.2-3.1c-9.3,0.7-18.6,1.5-27.7,3.1c-27,4.6-52.3,14-76.5,26.5C294.3,186.2,274.1,200,254.5,216.7z
			 M225.6,236.6c54.1-54.1,115.8-89.8,192.2-96.8c-0.5-0.8-0.8-1.4-1.2-1.9c-32.5-36.1-72.3-59.8-119.8-70.4c-1.4-0.3-3.8,0.8-4.9,2
			c-5,5.8-9.9,11.7-14.4,17.9c-26.3,36.9-41.4,78.3-48.5,122.7C227.7,218.4,226.9,226.7,225.6,236.6z M224.8,261.2
			c-2.2,11.4,1.4,20.5,10.7,27.5c0.8,0.6,1.5,1.3,2.1,2.1c6,7.9,13.7,10.6,23.7,10.4c17.7-0.4,17.3-0.3,30.5-12.3
			c8.3-7.5,10.9-15.6,11.2-26.5c0.3-12.3-3.3-21.2-12.2-29.7c-7.7-7.5-15.2-11.1-26.1-11.2c-11.6-0.1-20.3,2.9-28.5,11.4
			c-7.5,7.9-13.5,15.3-11.3,26.8C225,260.2,224.9,260.7,224.8,261.2z"/>
	</g>
	<g>
		<g>
			<g>
				<path class="st0" d="M643,170.6V268h-26.9v-97.4h-34.2v-23.3h95.3v23.3H643z"/>
			</g>
			<g>
				<path class="st0" d="M795.2,251.3c-12.2,11.9-27.2,17.9-45.1,17.9c-17.8,0-32.9-6-45.1-17.9c-12.2-11.9-18.3-26.7-18.3-44.5
					c0-17.7,6.1-32.6,18.3-44.5c12.2-11.9,27.2-17.9,45.1-17.9c17.8,0,32.9,6,45.1,17.9c12.2,11.9,18.3,26.7,18.3,44.5
					C813.5,224.6,807.4,239.4,795.2,251.3z M786,206.9c0-10.8-3.5-19.9-10.4-27.5c-6.9-7.6-15.4-11.4-25.5-11.4
					c-10.1,0-18.6,3.8-25.5,11.4c-6.9,7.6-10.4,16.8-10.4,27.5c0,10.8,3.5,19.9,10.4,27.5c6.9,7.5,15.4,11.3,25.5,11.3
					c10.1,0,18.6-3.8,25.5-11.3C782.6,226.9,786,217.7,786,206.9z"/>
			</g>
			<g>
				<path class="st0" d="M944.4,192l-32.6,66h-16.1l-32.5-66v76h-26.9V147.3h36.4l31.1,66.3l31.3-66.3h36.3V268h-26.9V192z"/>
			</g>
			<g>
				<path class="st0" d="M1001.1,147.3h26.9V268h-26.9V147.3z"/>
			</g>
			<g>
				<path class="st0" d="M1113.2,244.2c13.2,0,24.1-5.2,32.5-15.7l17.3,17.8c-13.7,15.4-29.9,23.1-48.4,23.1
					c-18.6,0-33.9-5.9-45.9-17.6c-12-11.7-18-26.6-18-44.5c0-17.9,6.1-32.8,18.4-44.8c12.3-12,27.3-18,45-18
					c19.8,0,36.4,7.5,49.7,22.6l-16.8,19c-8.5-10.6-19.1-15.9-31.8-15.9c-10.1,0-18.8,3.3-26,9.9c-7.2,6.6-10.8,15.5-10.8,26.8
					c0,11.2,3.4,20.2,10.2,27C1095.3,240.8,1103.5,244.2,1113.2,244.2z"/>
			</g>
			<g>
				<path class="st0" d="M1259.1,147.3h26.9V268h-26.9v-47.5h-48V268h-26.9V147.3h26.9v50.4h48V147.3z"/>
			</g>
		</g>
		<g>
			<path class="st0" d="M625.4,319c4.5,3.8,6.7,9.5,6.7,17.3c0,7.8-2.3,13.5-6.9,17.2c-4.6,3.6-11.6,5.4-21.1,5.4h-11.4v18.9h-10.9
				v-64.5H604C613.8,313.4,620.9,315.2,625.4,319z M617.7,345.6c2.2-2.3,3.3-5.7,3.3-10.1c0-4.5-1.4-7.6-4.2-9.5
				c-2.8-1.8-7.1-2.8-13-2.8h-11.1v25.8h12.6C611.4,349.1,615.5,347.9,617.7,345.6z"/>
			<path class="st0" d="M696.4,334.3c0,10.6-4.6,17.3-13.9,20.1l16.9,23.4h-13.8l-15.4-21.7h-14.3v21.7H645v-64.5h24
				c9.8,0,16.9,1.7,21.1,5C694.3,321.7,696.4,327,696.4,334.3z M682,343.4c2.2-1.9,3.3-5,3.3-9.2c0-4.2-1.1-7.1-3.4-8.7
				c-2.3-1.6-6.3-2.4-12.2-2.4h-13.8v23.1h13.6C675.6,346.3,679.7,345.3,682,343.4z"/>
			<path class="st0" d="M766.1,368.9c-6.5,6.4-14.6,9.5-24.2,9.5c-9.6,0-17.6-3.2-24.2-9.5c-6.5-6.4-9.8-14.3-9.8-23.8
				c0-9.5,3.3-17.4,9.8-23.8c6.5-6.4,14.6-9.5,24.2-9.5c9.6,0,17.6,3.2,24.2,9.5c6.5,6.4,9.8,14.3,9.8,23.8
				C775.8,354.6,772.6,362.6,766.1,368.9z M758.1,328.6c-4.4-4.6-9.8-6.8-16.2-6.8s-11.8,2.3-16.2,6.8c-4.4,4.5-6.6,10.1-6.6,16.6
				c0,6.5,2.2,12,6.6,16.6c4.4,4.6,9.8,6.8,16.2,6.8s11.8-2.3,16.2-6.8c4.4-4.5,6.6-10.1,6.6-16.6
				C764.7,338.6,762.5,333.1,758.1,328.6z"/>
			<path class="st0" d="M838.4,321.8c6.2,5.6,9.3,13.5,9.3,23.5c0,10-3,18-9,23.8c-6,5.8-15.2,8.8-27.7,8.8h-21.4v-64.5h22.1
				C823.3,313.4,832.2,316.2,838.4,321.8z M836.7,345.6c0-14.8-8.5-22.1-25.4-22.1h-10.9v44.2h12.1c7.8,0,13.8-1.9,17.9-5.6
				C834.6,358.3,836.7,352.8,836.7,345.6z"/>
			<path class="st0" d="M876.2,363.1c3,3.4,6.9,5.2,12,5.2c5,0,9-1.7,12-5.2c3-3.4,4.4-8.1,4.4-14v-35.7h10.9v36.2
				c0,9.3-2.6,16.4-7.7,21.4c-5.1,5-11.7,7.5-19.6,7.5c-8,0-14.5-2.5-19.6-7.5c-5.1-5-7.7-12.2-7.7-21.4v-36.2h10.9v35.7
				C871.8,355,873.2,359.6,876.2,363.1z"/>
			<path class="st0" d="M962,368c3.7,0,7-0.6,9.7-1.9c2.7-1.3,5.5-3.3,8.5-6l7,7.2c-6.8,7.6-15.1,11.3-24.9,11.3
				c-9.7,0-17.8-3.1-24.3-9.4c-6.4-6.3-9.6-14.2-9.6-23.8c0-9.6,3.3-17.6,9.8-24c6.5-6.4,14.8-9.6,24.8-9.6c10,0,18.3,3.7,25,11.1
				l-6.9,7.6c-3.1-3-6-5-8.7-6.2c-2.7-1.2-5.9-1.8-9.6-1.8c-6.5,0-12,2.1-16.4,6.3c-4.4,4.2-6.6,9.6-6.6,16.1c0,6.5,2.2,12,6.6,16.4
				C950.7,365.8,955.9,368,962,368z"/>
			<path class="st0" d="M1024.8,323.3v54.5h-10.9v-54.5h-19.6v-10h50v10H1024.8z"/>
			<path class="st0" d="M1056.1,313.4h10.9v64.5h-10.9V313.4z"/>
			<path class="st0" d="M1138.9,368.9c-6.5,6.4-14.6,9.5-24.2,9.5c-9.6,0-17.6-3.2-24.2-9.5c-6.5-6.4-9.8-14.3-9.8-23.8
				c0-9.5,3.3-17.4,9.8-23.8c6.5-6.4,14.6-9.5,24.2-9.5c9.6,0,17.6,3.2,24.2,9.5c6.5,6.4,9.8,14.3,9.8,23.8
				C1148.6,354.6,1145.4,362.6,1138.9,368.9z M1130.9,328.6c-4.4-4.6-9.8-6.8-16.2-6.8c-6.4,0-11.8,2.3-16.2,6.8
				c-4.4,4.5-6.6,10.1-6.6,16.6c0,6.5,2.2,12,6.6,16.6c4.4,4.6,9.8,6.8,16.2,6.8c6.4,0,11.8-2.3,16.2-6.8c4.4-4.5,6.6-10.1,6.6-16.6
				C1137.5,338.6,1135.3,333.1,1130.9,328.6z"/>
			<path class="st0" d="M1210.7,313.4h10.9v64.5h-11.8l-36.5-47v47h-10.9v-64.5h10.9l37.4,48.1V313.4z"/>
			<path class="st0" d="M1259,321.8c-3.2,0-5.8,0.6-7.8,1.9c-2,1.3-3,3.2-3,5.9c0,2.6,1,4.6,3,6c2,1.4,6.3,2.9,13,4.5
				c6.6,1.6,11.6,3.8,14.9,6.7c3.4,2.9,5,7.1,5,12.8c0,5.6-2.1,10.2-6.4,13.7c-4.2,3.5-9.8,5.3-16.7,5.3c-10.1,0-19-3.5-26.8-10.4
				l6.8-8.2c6.5,5.7,13.3,8.5,20.3,8.5c3.5,0,6.3-0.8,8.3-2.3c2.1-1.5,3.1-3.5,3.1-6c0-2.5-1-4.4-2.9-5.8c-1.9-1.4-5.3-2.6-10-3.8
				c-4.7-1.1-8.3-2.2-10.8-3.1c-2.5-1-4.6-2.2-6.5-3.7c-3.8-2.9-5.7-7.3-5.7-13.3c0-6,2.2-10.6,6.5-13.8c4.3-3.2,9.7-4.8,16.1-4.8
				c4.1,0,8.2,0.7,12.3,2c4.1,1.4,7.6,3.3,10.5,5.7l-5.8,8.2c-1.9-1.7-4.5-3.1-7.7-4.2C1265.4,322.4,1262.2,321.8,1259,321.8z"/>
		</g>
	</g>
</g>
</svg>
