<?xml version="1.0" encoding="utf-8"?>
<!-- Generator: Adobe Illustrator 19.0.0, SVG Export Plug-In . SVG Version: 6.00 Build 0)  -->
<svg version="1.1" id="Layer_2" xmlns="http://www.w3.org/2000/svg" xmlns:xlink="http://www.w3.org/1999/xlink" x="0px" y="0px"
	 viewBox="0 0 1583.8 1859.4" style="enable-background:new 0 0 1583.8 1859.4;" xml:space="preserve">
<style type="text/css">
	.st0{fill:#FFFFFF;}
	.st1{fill:#CF1645;}
	.st2{fill:#0D93FB;}
	.st3{fill:#4F5661;}
</style>
<g>
	<g>
		<g>
			<path class="st0" d="M1194.1,653.6h-3.8V653h0c-0.9,0.5-2.2,0.8-3.5,0.8c-2.4,0-5.7-0.8-5.7-4.2c0-3.7,5.2-4.1,8.3-4.1h1.2
				l-0.3-0.3c0-0.8-0.8-1.3-2.1-1.3c-1.3,0-2.6,0.4-3.7,1l-2.3-2.3c1.6-1.1,3.8-1.8,6.1-1.8c4,0,6,1.9,6,5.2V653.6z M1190.6,648.4
				h-0.6c-0.5,0-0.9,0-1.6,0c-0.6,0-1.3,0.1-1.9,0.2c-1.3,0.3-1.6,0.7-1.6,1.1c0,0.5,0.7,1.1,2.2,1.1c0.9,0,3.2-0.1,3.2-1.2v-0.9
				L1190.6,648.4z"/>
			<path class="st0" d="M1209.8,653.6h-3.8v-1h0c-0.8,0.8-2,1.2-3.3,1.2c-3.9,0-5.7-2.1-5.7-5.2V641h3.8v7.4c0,1.5,0.8,2.2,2.4,2.2
				c1.7,0,2.8-0.8,2.8-2.2V641h3.8V653.6z"/>
			<path class="st0" d="M1225.8,653.6h-3.8v-0.8h0c-0.7,0.6-2,1-3.4,1c-4.4,0-6.4-2.7-6.4-6.5c0-3.8,2-6.5,6.4-6.5
				c1.4,0,2.7,0.4,3.4,1h0v-5h3.8V653.6z M1219.1,644.1c-2.2,0-3.1,1.2-3.1,3.3c0,2.1,0.9,3.2,3.1,3.2c2.2,0,3.1-1.2,3.1-3.2
				C1222.2,645.2,1221.3,644.1,1219.1,644.1z"/>
			<path class="st0" d="M1230.8,640.4c-1.2,0-2-0.9-2-2c0-1.2,0.8-2,2-2c1.2,0,2,0.9,2,2S1231.9,640.4,1230.8,640.4z M1232.7,653.6
				h-3.8V641h3.8V653.6z"/>
			<path class="st0" d="M1242,653.8c-4.6,0-6.9-2.9-6.9-6.5s2.3-6.5,6.9-6.5c4.6,0,7,2.8,7,6.5C1249,650.9,1246.6,653.8,1242,653.8z
				 M1242,644.1c-2.2,0-3.1,1.2-3.1,3.2c0,2,1,3.3,3.1,3.3c2.2,0,3.1-1.3,3.1-3.3C1245.2,645.3,1244.2,644.1,1242,644.1z"/>
			<path class="st0" d="M1270.8,648.7h-10l0.4,0.3c0.6,1,1.7,1.7,3.1,1.7c1.3,0,2.3-0.4,3.2-1l2.2,2.2c-1.4,1.2-3.1,1.9-5.4,1.9
				c-4.8,0-7.2-2.8-7.2-6.4c0-3.7,2.6-6.6,7-6.6c4.6,0,6.9,2.9,6.9,6.6C1270.9,647.8,1270.9,648.3,1270.8,648.7z M1267.1,645.7
				l-0.3-0.3c-0.5-1-1.4-1.6-2.8-1.6c-1.3,0-2.3,0.6-2.8,1.6l-0.4,0.3H1267.1z"/>
			<path class="st0" d="M1286.4,653.6h-3.8v-0.8h0c-0.7,0.6-2,1-3.4,1c-4.4,0-6.4-2.7-6.4-6.5c0-3.8,2-6.5,6.4-6.5
				c1.4,0,2.7,0.4,3.4,1h0v-5h3.8V653.6z M1279.6,644.1c-2.2,0-3.1,1.2-3.1,3.3c0,2.1,0.9,3.2,3.1,3.2c2.2,0,3.1-1.2,3.1-3.2
				C1282.7,645.2,1281.8,644.1,1279.6,644.1z"/>
			<path class="st0" d="M1291.3,640.4c-1.2,0-2-0.9-2-2c0-1.2,0.8-2,2-2c1.2,0,2,0.9,2,2S1292.5,640.4,1291.3,640.4z M1293.2,653.6
				h-3.8V641h3.8V653.6z"/>
			<path class="st0" d="M1305.9,651.8c-1.4,1.3-2.6,2-4.4,2c-3.1,0-4.5-1.5-4.5-4.5v-4.9l0.2-0.3h-2v-3h2l-0.2-0.3v-1.3l3.8-2v3.3
				l-0.2,0.3h3.9v3h-3.9l0.2,0.3v4.9c0,0.9,0.5,1.3,1.1,1.3c0.7,0,1.2-0.3,1.8-0.9L1305.9,651.8z"/>
			<path class="st0" d="M1309.4,640.4c-1.2,0-2-0.9-2-2c0-1.2,0.8-2,2-2c1.2,0,2,0.9,2,2S1310.6,640.4,1309.4,640.4z M1311.4,653.6
				h-3.8V641h3.8V653.6z"/>
			<path class="st0" d="M1327.4,653.6h-3.8v-7.5c0-1.3-0.3-2.1-2.5-2.1c-1.7,0-2.9,0.8-2.9,2.2v7.3h-3.8V641h3.8v1.1h0
				c0.9-0.8,2.2-1.2,3.6-1.2c3.5,0,5.6,1.9,5.6,5V653.6z"/>
			<path class="st0" d="M1343.4,641v11.2c0,3.6-2.3,5.7-6.7,5.7c-2.6,0-4.5-0.6-6.3-1.7l2.5-2.5c1.1,0.7,2.5,1,3.8,1
				c1.8,0,2.8-0.9,2.8-2.3v-0.2h0c-0.7,0.4-1.9,0.8-3,0.8c-4.4,0-6.7-2.5-6.7-6.2c0-3.3,2.3-6.1,6.7-6.1c1,0,2.5,0.4,3,0.9h0V641
				H1343.4z M1336.7,644.1c-2.1,0-3.1,1.2-3.1,2.9c0,1.7,1,2.8,3.1,2.8c2.3,0,3.1-1.1,3.1-2.8
				C1339.7,645.2,1338.8,644.1,1336.7,644.1z"/>
		</g>
		<g>
			<circle class="st1" cx="1262.5" cy="555.6" r="61"/>
		</g>
		<g id="Headphones_3_3_">
			<g>
				<path class="st0" d="M1309.8,566.9l-1.9-7.4c-1.1-4.1-5.2-6.5-9.3-5.4l-4.8-18.4c-4.8-18.3-23.5-29.2-41.8-24.4
					c-18.3,4.8-29.2,23.5-24.4,41.8l4.8,18.4c-4.1,1.1-6.5,5.2-5.4,9.3l1.9,7.4c1.1,4.1,5.2,6.5,9.3,5.4l0.2,0c2,4,6.5,6.2,10.9,5
					c5.1-1.3,8.1-6.5,6.8-11.6l-4.8-18.4c-1.3-5.1-6.5-8.1-11.6-6.8c-2.1,0.5-3.8,1.8-5,3.3l-3.4-12.9c-4.3-16.3,5.5-32.9,21.7-37.1
					c16.3-4.3,32.9,5.5,37.1,21.7l3.4,12.9c-1.8-0.8-3.9-1-6-0.4c-5.1,1.3-8.1,6.5-6.8,11.6l4.8,18.4c1.3,5.1,6.5,8.1,11.6,6.8
					c4.4-1.2,7.3-5.3,7.1-9.7l0.2,0C1308.5,575.1,1310.9,570.9,1309.8,566.9z M1248.3,594.7c-2.4,0.6-4.8-0.4-6.1-2.3l10.4-2.7
					C1252.4,592,1250.7,594.1,1248.3,594.7z M1251.9,585.9l-11,2.9l-1.4-5.5l11-2.9L1251.9,585.9z M1249.5,576.7l-11,2.9l-1.4-5.5
					l11-2.9L1249.5,576.7z M1240.7,565.3c2.4-0.6,4.8,0.4,6.1,2.3l-10.4,2.7C1236.6,568,1238.3,565.9,1240.7,565.3z M1288.5,552.8
					c2.4-0.6,4.8,0.4,6.1,2.3l-10.4,2.7C1284.5,555.5,1286.1,553.4,1288.5,552.8z M1284.9,561.6l11-2.9l1.4,5.5l-11,2.9
					L1284.9,561.6z M1287.3,570.8l11-2.9l1.4,5.5l-11,2.9L1287.3,570.8z M1296.2,582.2c-2.4,0.6-4.8-0.4-6.1-2.3l10.4-2.7
					C1300.2,579.5,1298.6,581.6,1296.2,582.2z"/>
			</g>
		</g>
	</g>
	<g>
		<g>
			<path class="st0" d="M751,369.5h-3.8v-0.6h0c-0.9,0.5-2.2,0.8-3.5,0.8c-2.4,0-5.7-0.8-5.7-4.2c0-3.7,5.2-4.1,8.3-4.1h1.2
				l-0.3-0.3c0-0.8-0.8-1.3-2.1-1.3c-1.3,0-2.6,0.4-3.7,1l-2.3-2.3c1.6-1.1,3.8-1.8,6.1-1.8c4,0,6,1.9,6,5.2V369.5z M747.5,364.2
				h-0.6c-0.5,0-0.9,0-1.6,0c-0.6,0-1.3,0.1-1.9,0.2c-1.3,0.3-1.6,0.7-1.6,1.1c0,0.5,0.7,1.1,2.2,1.1c0.9,0,3.2-0.1,3.2-1.2v-0.9
				L747.5,364.2z"/>
			<path class="st0" d="M766.7,369.5h-3.8v-1h0c-0.8,0.8-2,1.2-3.3,1.2c-3.9,0-5.7-2.1-5.7-5.2v-7.6h3.8v7.4c0,1.5,0.8,2.2,2.4,2.2
				c1.7,0,2.8-0.8,2.8-2.2v-7.3h3.8V369.5z"/>
			<path class="st0" d="M782.8,369.5h-3.8v-0.8h0c-0.7,0.6-2,1-3.4,1c-4.4,0-6.4-2.7-6.4-6.5c0-3.8,2-6.5,6.4-6.5
				c1.4,0,2.7,0.4,3.4,1h0v-5h3.8V369.5z M776,359.9c-2.2,0-3.1,1.2-3.1,3.3c0,2.1,0.9,3.2,3.1,3.2c2.2,0,3.1-1.2,3.1-3.2
				C779.1,361.1,778.2,359.9,776,359.9z"/>
			<path class="st0" d="M787.7,356.2c-1.2,0-2-0.9-2-2c0-1.2,0.8-2,2-2c1.2,0,2,0.9,2,2S788.9,356.2,787.7,356.2z M789.6,369.5h-3.8
				v-12.6h3.8V369.5z"/>
			<path class="st0" d="M799,369.7c-4.6,0-6.9-2.9-6.9-6.5s2.3-6.5,6.9-6.5c4.6,0,7,2.8,7,6.5C805.9,366.8,803.6,369.7,799,369.7z
				 M799,359.9c-2.2,0-3.1,1.2-3.1,3.2c0,2,1,3.3,3.1,3.3c2.2,0,3.1-1.3,3.1-3.3C802.1,361.2,801.1,359.9,799,359.9z"/>
			<path class="st0" d="M821.8,369.7c-1.4,0-2.7-0.4-3.4-1h0v5h-3.8v-16.8h3.8v0.8h0c0.7-0.6,2-1,3.4-1c4.4,0,6.4,2.8,6.4,6.5
				C828.2,366.9,826.2,369.7,821.8,369.7z M821.3,359.9c-2.2,0-3.1,1.2-3.1,3.2c0,2.1,0.9,3.3,3.1,3.3c2.2,0,3.1-1.2,3.1-3.3
				S823.5,359.9,821.3,359.9z"/>
			<path class="st0" d="M838.9,360h-1.1c-2.4,0-3.3,1.1-3.3,3.2v6.2h-3.8v-12.6h3.8v1.5h0c0.7-1.1,1.9-1.6,3.6-1.6h0.8V360z"/>
			<path class="st0" d="M847,369.7c-4.6,0-6.9-2.9-6.9-6.5s2.3-6.5,6.9-6.5c4.6,0,7,2.8,7,6.5C854,366.8,851.6,369.7,847,369.7z
				 M847,359.9c-2.2,0-3.1,1.2-3.1,3.2c0,2,1,3.3,3.1,3.3c2.2,0,3.1-1.3,3.1-3.3C850.1,361.2,849.2,359.9,847,359.9z"/>
			<path class="st0" d="M869.4,369.5h-3.8v-0.8h0c-0.7,0.6-2,1-3.4,1c-4.4,0-6.4-2.7-6.4-6.5c0-3.8,2-6.5,6.4-6.5
				c1.4,0,2.7,0.4,3.4,1h0v-5h3.8V369.5z M862.7,359.9c-2.2,0-3.1,1.2-3.1,3.3c0,2.1,0.9,3.2,3.1,3.2c2.2,0,3.1-1.2,3.1-3.2
				C865.8,361.1,864.9,359.9,862.7,359.9z"/>
			<path class="st0" d="M885.2,369.5h-3.8v-1h0c-0.8,0.8-2,1.2-3.3,1.2c-3.9,0-5.7-2.1-5.7-5.2v-7.6h3.8v7.4c0,1.5,0.8,2.2,2.4,2.2
				c1.7,0,2.8-0.8,2.8-2.2v-7.3h3.8V369.5z"/>
			<path class="st0" d="M892.1,369.5h-3.8v-16.8h3.8V369.5z M903,369.5h-4.9l-5.8-6.4l5.8-6.2h4.7l-5.8,6.1v0L903,369.5z"/>
			<path class="st0" d="M916,367.5c-1.2,1.2-3.2,2.2-5.5,2.2c-4.7,0-7-2.9-7-6.4c0-3.6,2.5-6.6,7-6.6c2.5,0,4.2,0.9,5.4,2.1
				l-2.5,2.5c-0.8-0.9-1.6-1.3-2.9-1.3c-2.1,0-3.2,1.4-3.2,3.3c0,1.9,0.9,3.2,3.2,3.2c1.3,0,2.2-0.5,3-1.3L916,367.5z"/>
			<path class="st0" d="M919.9,356.2c-1.2,0-2-0.9-2-2c0-1.2,0.8-2,2-2c1.2,0,2,0.9,2,2S921.1,356.2,919.9,356.2z M921.8,369.5H918
				v-12.6h3.8V369.5z"/>
			<path class="st0" d="M928.9,369.7c0,2.7-1.5,4-4.2,4c-0.9,0-1.7-0.3-2.5-0.5v-3.2c0.6,0.4,1.3,0.6,1.9,0.6c0.6,0,1-0.3,1-0.9
				v-12.8h3.8V369.7z M927,356.2c-1.2,0-2-0.9-2-2c0-1.2,0.8-2,2-2c1.2,0,2,0.9,2,2S928.2,356.2,927,356.2z"/>
			<path class="st0" d="M944.4,369.5h-3.8v-0.6h0c-0.9,0.5-2.2,0.8-3.5,0.8c-2.4,0-5.7-0.8-5.7-4.2c0-3.7,5.2-4.1,8.3-4.1h1.2
				l-0.3-0.3c0-0.8-0.8-1.3-2.1-1.3c-1.3,0-2.6,0.4-3.7,1l-2.3-2.3c1.6-1.1,3.8-1.8,6.1-1.8c4,0,6,1.9,6,5.2V369.5z M940.9,364.2
				h-0.6c-0.5,0-0.9,0-1.6,0c-0.6,0-1.3,0.1-1.9,0.2c-1.3,0.3-1.6,0.7-1.6,1.1c0,0.5,0.7,1.1,2.2,1.1c0.9,0,3.2-0.1,3.2-1.2v-0.9
				L940.9,364.2z"/>
		</g>
		<g>
			<circle class="st2" cx="833.5" cy="281.5" r="52"/>
		</g>
		<g id="Microphone_3_">
			<g>
				<path class="st0" d="M867.5,288.7c10.2,0,18.5-8.3,18.5-18.5V233c0-10.2-8.3-18.5-18.5-18.5c-10.2,0-18.5,8.3-18.5,18.5v37.1
					C849,280.4,857.3,288.7,867.5,288.7z M853.6,233c0-7.7,6.2-13.9,13.9-13.9c7.7,0,13.9,6.2,13.9,13.9v18.5h-27.8V233z
					 M853.6,256.2h27.8v13.9c0,7.7-6.2,13.9-13.9,13.9c-7.7,0-13.9-6.2-13.9-13.9V256.2z M895.3,270.1v-7c0-1.3-1-2.3-2.3-2.3
					s-2.3,1-2.3,2.3v7c0,12.8-10.4,23.2-23.2,23.2s-23.2-10.4-23.2-23.2v-7c0-1.3-1-2.3-2.3-2.3s-2.3,1-2.3,2.3v7
					c0,14.6,11.2,26.5,25.5,27.7v14H849c-1.3,0-2.3,1-2.3,2.3c0,1.3,1,2.3,2.3,2.3h37.1c1.3,0,2.3-1,2.3-2.3c0-1.3-1-2.3-2.3-2.3
					h-16.2v-14C884.1,296.6,895.3,284.7,895.3,270.1z"/>
			</g>
		</g>
	</g>
	<g>
		<g>
			<path class="st0" d="M1386.7,1079.9l-5.8,12.6h-3.3l-5.8-12.6h4.2l2.5,5.9l0.7,2.1h0l0.7-2.1l2.5-5.9H1386.7z"/>
			<path class="st0" d="M1390.3,1079.2c-1.2,0-2-0.9-2-2c0-1.2,0.8-2,2-2c1.2,0,2,0.9,2,2S1391.5,1079.2,1390.3,1079.2z
				 M1392.2,1092.5h-3.8v-12.6h3.8V1092.5z"/>
			<path class="st0" d="M1408.3,1092.5h-3.8v-0.8h0c-0.7,0.6-2,1-3.4,1c-4.4,0-6.4-2.7-6.4-6.5c0-3.8,2-6.5,6.4-6.5
				c1.4,0,2.7,0.4,3.4,1h0v-5h3.8V1092.5z M1401.5,1082.9c-2.2,0-3.1,1.2-3.1,3.3c0,2.1,0.9,3.2,3.1,3.2c2.2,0,3.1-1.2,3.1-3.2
				C1404.6,1084.1,1403.7,1082.9,1401.5,1082.9z"/>
			<path class="st0" d="M1424.5,1087.6h-10l0.4,0.3c0.6,1,1.7,1.7,3.1,1.7c1.3,0,2.3-0.4,3.2-1l2.2,2.2c-1.4,1.2-3.1,1.9-5.4,1.9
				c-4.8,0-7.2-2.8-7.2-6.4c0-3.7,2.6-6.6,7-6.6c4.6,0,6.9,2.9,6.9,6.6C1424.6,1086.6,1424.6,1087.2,1424.5,1087.6z M1420.8,1084.6
				l-0.3-0.3c-0.5-1-1.4-1.6-2.8-1.6c-1.3,0-2.3,0.6-2.8,1.6l-0.4,0.3H1420.8z"/>
			<path class="st0" d="M1433.3,1092.7c-4.6,0-6.9-2.9-6.9-6.5s2.3-6.5,6.9-6.5c4.6,0,7,2.8,7,6.5
				C1440.3,1089.8,1437.9,1092.7,1433.3,1092.7z M1433.3,1082.9c-2.2,0-3.1,1.2-3.1,3.2c0,2,1,3.3,3.1,3.3c2.2,0,3.1-1.3,3.1-3.3
				C1436.4,1084.2,1435.5,1082.9,1433.3,1082.9z"/>
			<path class="st0" d="M1456.1,1092.7c-1.4,0-2.7-0.4-3.4-1h0v5h-3.8v-16.8h3.8v0.8h0c0.7-0.6,2-1,3.4-1c4.4,0,6.4,2.8,6.4,6.5
				C1462.5,1089.9,1460.5,1092.7,1456.1,1092.7z M1455.6,1082.9c-2.2,0-3.1,1.2-3.1,3.2c0,2.1,0.9,3.3,3.1,3.3
				c2.2,0,3.1-1.2,3.1-3.3S1457.8,1082.9,1455.6,1082.9z"/>
			<path class="st0" d="M1473.2,1083h-1.1c-2.4,0-3.3,1.1-3.3,3.2v6.2h-3.8v-12.6h3.8v1.5h0c0.7-1.1,1.9-1.6,3.6-1.6h0.8V1083z"/>
			<path class="st0" d="M1481.4,1092.7c-4.6,0-6.9-2.9-6.9-6.5s2.3-6.5,6.9-6.5c4.6,0,7,2.8,7,6.5
				C1488.3,1089.8,1486,1092.7,1481.4,1092.7z M1481.4,1082.9c-2.2,0-3.1,1.2-3.1,3.2c0,2,1,3.3,3.1,3.3c2.2,0,3.1-1.3,3.1-3.3
				C1484.5,1084.2,1483.5,1082.9,1481.4,1082.9z"/>
			<path class="st0" d="M1503.8,1092.5h-3.8v-0.8h0c-0.7,0.6-2,1-3.4,1c-4.4,0-6.4-2.7-6.4-6.5c0-3.8,2-6.5,6.4-6.5
				c1.4,0,2.7,0.4,3.4,1h0v-5h3.8V1092.5z M1497.1,1082.9c-2.2,0-3.1,1.2-3.1,3.3c0,2.1,0.9,3.2,3.1,3.2c2.2,0,3.1-1.2,3.1-3.2
				C1500.1,1084.1,1499.3,1082.9,1497.1,1082.9z"/>
			<path class="st0" d="M1519.6,1092.5h-3.8v-1h0c-0.8,0.8-2,1.2-3.3,1.2c-3.9,0-5.7-2.1-5.7-5.2v-7.6h3.8v7.4
				c0,1.5,0.8,2.2,2.4,2.2c1.7,0,2.8-0.8,2.8-2.2v-7.3h3.8V1092.5z"/>
			<path class="st0" d="M1526.4,1092.5h-3.8v-16.8h3.8V1092.5z M1537.4,1092.5h-4.9l-5.8-6.4l5.8-6.2h4.7l-5.8,6.1v0L1537.4,1092.5z
				"/>
			<path class="st0" d="M1550.4,1090.5c-1.2,1.2-3.2,2.2-5.5,2.2c-4.7,0-7-2.9-7-6.4c0-3.6,2.5-6.6,7-6.6c2.5,0,4.2,0.9,5.4,2.1
				l-2.5,2.5c-0.8-0.9-1.6-1.3-2.9-1.3c-2.1,0-3.2,1.4-3.2,3.3c0,1.9,0.9,3.2,3.2,3.2c1.3,0,2.2-0.5,3-1.3L1550.4,1090.5z"/>
			<path class="st0" d="M1554.3,1079.2c-1.2,0-2-0.9-2-2c0-1.2,0.8-2,2-2c1.2,0,2,0.9,2,2S1555.5,1079.2,1554.3,1079.2z
				 M1556.2,1092.5h-3.8v-12.6h3.8V1092.5z"/>
			<path class="st0" d="M1563.3,1092.7c0,2.7-1.5,4-4.2,4c-0.9,0-1.7-0.3-2.5-0.5v-3.2c0.6,0.4,1.3,0.6,1.9,0.6c0.6,0,1-0.3,1-0.9
				v-12.8h3.8V1092.7z M1561.3,1079.2c-1.2,0-2-0.9-2-2c0-1.2,0.8-2,2-2c1.2,0,2,0.9,2,2S1562.5,1079.2,1561.3,1079.2z"/>
			<path class="st0" d="M1578.8,1092.5h-3.8v-0.6h0c-0.9,0.5-2.2,0.8-3.5,0.8c-2.4,0-5.7-0.8-5.7-4.2c0-3.7,5.2-4.1,8.3-4.1h1.2
				l-0.3-0.3c0-0.8-0.8-1.3-2.1-1.3c-1.3,0-2.6,0.4-3.7,1l-2.3-2.3c1.6-1.1,3.8-1.8,6.1-1.8c4,0,6,1.9,6,5.2V1092.5z M1575.3,1087.2
				h-0.6c-0.5,0-0.9,0-1.6,0c-0.6,0-1.3,0.1-1.9,0.2c-1.3,0.3-1.6,0.7-1.6,1.1c0,0.5,0.7,1.1,2.2,1.1c0.9,0,3.2-0.1,3.2-1.2v-0.9
				L1575.3,1087.2z"/>
		</g>
		<g>
			<circle class="st2" cx="1475.9" cy="1004.5" r="52"/>
		</g>
		<g id="Video_Camera_4_1_">
			<g>
				<path class="st0" d="M1483.1,966.5c2.5,0,4.6-2.1,4.6-4.6s-2.1-4.6-4.6-4.6c-2.5,0-4.6,2.1-4.6,4.6S1480.6,966.5,1483.1,966.5z
					 M1515.3,966.5c2.5,0,4.6-2.1,4.6-4.6s-2.1-4.6-4.6-4.6c-2.5,0-4.6,2.1-4.6,4.6S1512.8,966.5,1515.3,966.5z M1526.8,1021.7
					h-55.2c-1.3,0-2.3,1-2.3,2.3c0,1.3,1,2.3,2.3,2.3h55.2c1.3,0,2.3-1,2.3-2.3C1529.1,1022.7,1528.1,1021.7,1526.8,1021.7z
					 M1559,984.9c-0.4,0-0.7,0.1-1,0.3l0,0l-19.7,7.9v-8.1c0-5.1-4.1-9.2-9.2-9.2h-1.7c3.8-3.4,6.3-8.3,6.3-13.8
					c0-10.2-8.2-18.4-18.4-18.4c-6.9,0-13,3.8-16.1,9.5c-3.1-5.7-9.2-9.5-16.1-9.5c-10.2,0-18.4,8.2-18.4,18.4
					c0,5.5,2.4,10.4,6.3,13.8h-1.7c-5.1,0-9.2,4.1-9.2,9.2v41.4c0,5.1,4.1,9.2,9.2,9.2h59.8c5.1,0,9.2-4.1,9.2-9.2v-8.1l19.7,7.9
					l0,0c0.3,0.2,0.6,0.3,1,0.3c1.3,0,2.3-1,2.3-2.3v-36.8C1561.3,985.9,1560.3,984.9,1559,984.9z M1515.3,948.1
					c7.6,0,13.8,6.2,13.8,13.8c0,7.6-6.2,13.8-13.8,13.8c-7.6,0-13.8-6.2-13.8-13.8C1501.5,954.3,1507.7,948.1,1515.3,948.1z
					 M1503.2,975.7h-7.9c1.6-1.4,2.9-3.1,3.9-4.9C1500.2,972.6,1501.6,974.3,1503.2,975.7z M1469.3,961.9c0-7.6,6.2-13.8,13.8-13.8
					c7.6,0,13.8,6.2,13.8,13.8c0,7.6-6.2,13.8-13.8,13.8C1475.5,975.7,1469.3,969.5,1469.3,961.9z M1533.7,1026.3
					c0,2.5-2.1,4.6-4.6,4.6h-59.8c-2.5,0-4.6-2.1-4.6-4.6v-41.4c0-2.5,2.1-4.6,4.6-4.6h59.8c2.5,0,4.6,2.1,4.6,4.6V1026.3z
					 M1556.7,1020.6l-18.4-7.4v-15.3l18.4-7.4V1020.6z M1490,989.5c1.3,0,2.3-1,2.3-2.3c0-1.3-1-2.3-2.3-2.3c-1.3,0-2.3,1-2.3,2.3
					C1487.7,988.4,1488.7,989.5,1490,989.5z M1476.2,998.7c3.8,0,6.9-3.1,6.9-6.9c0-3.8-3.1-6.9-6.9-6.9c-3.8,0-6.9,3.1-6.9,6.9
					C1469.3,995.6,1472.4,998.7,1476.2,998.7z M1476.2,989.5c1.3,0,2.3,1,2.3,2.3c0,1.3-1,2.3-2.3,2.3c-1.3,0-2.3-1-2.3-2.3
					C1473.9,990.5,1474.9,989.5,1476.2,989.5z"/>
			</g>
		</g>
	</g>
	<g>
		<g>
			<path class="st0" d="M311.2,674.4l-7.6,16.2h-3.3l-7.6-16.2h4.3l4.4,9.7l0.6,1.6h0l0.5-1.6l4.4-9.7H311.2z"/>
			<path class="st0" d="M315,677.4c-1.2,0-2-0.9-2-2c0-1.2,0.8-2,2-2c1.2,0,2,0.9,2,2S316.1,677.4,315,677.4z M316.9,690.6H313V678
				h3.8V690.6z"/>
			<path class="st0" d="M333,690.6h-3.8v-0.8h0c-0.7,0.6-2,1-3.4,1c-4.4,0-6.4-2.7-6.4-6.5c0-3.8,2-6.5,6.4-6.5c1.4,0,2.7,0.4,3.4,1
				h0v-5h3.8V690.6z M326.2,681.1c-2.2,0-3.1,1.2-3.1,3.3c0,2.1,0.9,3.2,3.1,3.2c2.2,0,3.1-1.2,3.1-3.2
				C329.3,682.2,328.4,681.1,326.2,681.1z"/>
			<path class="st0" d="M349.2,685.7h-10l0.4,0.3c0.6,1,1.7,1.7,3.1,1.7c1.3,0,2.3-0.4,3.2-1l2.2,2.2c-1.4,1.2-3.1,1.9-5.4,1.9
				c-4.8,0-7.2-2.8-7.2-6.4c0-3.7,2.6-6.6,7-6.6c4.6,0,6.9,2.9,6.9,6.6C349.3,684.8,349.2,685.3,349.2,685.7z M345.4,682.7l-0.3-0.3
				c-0.5-1-1.4-1.6-2.8-1.6c-1.3,0-2.3,0.6-2.8,1.6l-0.4,0.3H345.4z"/>
			<path class="st0" d="M358,690.8c-4.6,0-6.9-2.9-6.9-6.5s2.3-6.5,6.9-6.5c4.6,0,7,2.8,7,6.5C365,687.9,362.6,690.8,358,690.8z
				 M358,681.1c-2.2,0-3.1,1.2-3.1,3.2c0,2,1,3.3,3.1,3.3c2.2,0,3.1-1.3,3.1-3.3C361.1,682.3,360.2,681.1,358,681.1z"/>
			<path class="st0" d="M386.8,685.7h-10l0.4,0.3c0.6,1,1.7,1.7,3.1,1.7c1.3,0,2.3-0.4,3.2-1l2.2,2.2c-1.4,1.2-3.1,1.9-5.4,1.9
				c-4.8,0-7.2-2.8-7.2-6.4c0-3.7,2.6-6.6,7-6.6c4.6,0,6.9,2.9,6.9,6.6C386.9,684.8,386.8,685.3,386.8,685.7z M383,682.7l-0.3-0.3
				c-0.5-1-1.4-1.6-2.8-1.6c-1.3,0-2.3,0.6-2.8,1.6l-0.4,0.3H383z"/>
			<path class="st0" d="M402.3,690.6h-3.8v-0.8h0c-0.7,0.6-2,1-3.4,1c-4.4,0-6.4-2.7-6.4-6.5c0-3.8,2-6.5,6.4-6.5
				c1.4,0,2.7,0.4,3.4,1h0v-5h3.8V690.6z M395.6,681.1c-2.2,0-3.1,1.2-3.1,3.3c0,2.1,0.9,3.2,3.1,3.2c2.2,0,3.1-1.2,3.1-3.2
				C398.6,682.2,397.8,681.1,395.6,681.1z"/>
			<path class="st0" d="M407.2,677.4c-1.2,0-2-0.9-2-2c0-1.2,0.8-2,2-2c1.2,0,2,0.9,2,2S408.4,677.4,407.2,677.4z M409.2,690.6h-3.8
				V678h3.8V690.6z"/>
			<path class="st0" d="M421.8,688.8c-1.4,1.3-2.6,2-4.4,2c-3.1,0-4.5-1.5-4.5-4.5v-4.9l0.2-0.3h-2v-3h2l-0.2-0.3v-1.3l3.8-2v3.3
				l-0.2,0.3h3.9v3h-3.9l0.2,0.3v4.9c0,0.9,0.5,1.3,1.1,1.3c0.7,0,1.2-0.3,1.8-0.9L421.8,688.8z"/>
			<path class="st0" d="M425.4,677.4c-1.2,0-2-0.9-2-2c0-1.2,0.8-2,2-2c1.2,0,2,0.9,2,2S426.6,677.4,425.4,677.4z M427.3,690.6h-3.8
				V678h3.8V690.6z"/>
			<path class="st0" d="M443.4,690.6h-3.8v-7.5c0-1.3-0.3-2.1-2.5-2.1c-1.7,0-2.9,0.8-2.9,2.2v7.3h-3.8V678h3.8v1.1h0
				c0.9-0.8,2.2-1.2,3.6-1.2c3.5,0,5.6,1.9,5.6,5V690.6z"/>
			<path class="st0" d="M459.4,678v11.2c0,3.6-2.3,5.7-6.7,5.7c-2.6,0-4.5-0.6-6.3-1.7l2.5-2.5c1.1,0.7,2.5,1,3.8,1
				c1.8,0,2.8-0.9,2.8-2.3v-0.2h0c-0.7,0.4-1.9,0.8-3,0.8c-4.4,0-6.7-2.5-6.7-6.2c0-3.3,2.3-6.1,6.7-6.1c1,0,2.5,0.4,3,0.9h0V678
				H459.4z M452.6,681.1c-2.1,0-3.1,1.2-3.1,2.9c0,1.7,1,2.8,3.1,2.8c2.3,0,3.1-1.1,3.1-2.8C455.7,682.2,454.7,681.1,452.6,681.1z"
				/>
		</g>
		<g>
			<circle class="st1" cx="376.7" cy="592.6" r="61"/>
		</g>
		<g id="Top_Hat_with_Cane_1_">
			<g>
				<path class="st0" d="M364.7,616.1h-26.5c-1.1,0-2-0.9-2-2c0-1.1,0.9-2.1,2-2.1h30.6l16.4-16.4h-36.8v-36.9h57.4V575l4.1-4.1
					v-14.2c0-1.1-0.9-2-2-2h-61.5c-1.1,0-2,0.9-2,2v51.3h-6.2c-3.4,0-6.1,2.8-6.1,6.2c0,3.4,2.8,6.1,6.1,6.1h22.4L364.7,616.1z
					 M416.1,607.9H410v-8.1L397.8,612h18.3c1.1,0,2,0.9,2,2.1c0,1.1-0.9,2-2,2h-22.4l-4.1,4.1h26.5c3.4,0,6.1-2.8,6.1-6.1
					C422.3,610.7,419.5,607.9,416.1,607.9z M422.3,579.2c0-3.4-2.8-6.1-6.1-6.1c-1.7,0-3.2,0.7-4.3,1.8l-51.2,51.3
					c-1.1,1.1-1.8,2.7-1.8,4.3c0,3.4,2.8,6.2,6.2,6.2c1.7,0,3.2-0.7,4.3-1.8l51.3-51.3C421.6,582.5,422.3,580.9,422.3,579.2z
					 M417.6,580.7l-9.8,9.8l-2.9-2.9l9.8-9.8c0.4-0.4,0.9-0.6,1.4-0.6c1.1,0,2,0.9,2,2C418.2,579.8,417.9,580.3,417.6,580.7z"/>
			</g>
		</g>
	</g>
	<g>
		<g>
			<path class="st0" d="M770.2,1651.6c-1.4,0-2.7-0.4-3.4-1h0v5H763v-16.8h3.8v0.8h0c0.7-0.6,2-1,3.4-1c4.4,0,6.4,2.8,6.4,6.5
				C776.6,1648.8,774.6,1651.6,770.2,1651.6z M769.7,1641.9c-2.2,0-3.1,1.2-3.1,3.2c0,2.1,0.9,3.3,3.1,3.3c2.2,0,3.1-1.2,3.1-3.3
				S771.9,1641.9,769.7,1641.9z"/>
			<path class="st0" d="M787.3,1641.9h-1.1c-2.4,0-3.3,1.1-3.3,3.2v6.2H779v-12.6h3.8v1.5h0c0.7-1.1,1.9-1.6,3.6-1.6h0.8V1641.9z"/>
			<path class="st0" d="M795.5,1651.6c-4.6,0-6.9-2.9-6.9-6.5s2.3-6.5,6.9-6.5c4.6,0,7,2.8,7,6.5
				C802.4,1648.7,800.1,1651.6,795.5,1651.6z M795.5,1641.9c-2.2,0-3.1,1.2-3.1,3.2c0,2,1,3.3,3.1,3.3c2.2,0,3.1-1.3,3.1-3.3
				C798.6,1643.1,797.6,1641.9,795.5,1641.9z"/>
			<path class="st0" d="M819.5,1641.8h-3.9l0.2,0.4v9.3h-3.8v-9.3l0.2-0.4H810v-3h2.1l-0.2-0.4c0-2.8,2.2-4,4.8-4
				c1.1,0,2.1,0.1,2.7,0.3v3c-0.6-0.2-1.3-0.4-2-0.4c-1.3,0-1.7,0.4-1.7,1.1l-0.2,0.4h3.8V1641.8z"/>
			<path class="st0" d="M827.3,1651.6c-4.6,0-6.9-2.9-6.9-6.5s2.3-6.5,6.9-6.5c4.6,0,7,2.8,7,6.5
				C834.3,1648.7,831.9,1651.6,827.3,1651.6z M827.3,1641.9c-2.2,0-3.1,1.2-3.1,3.2c0,2,1,3.3,3.1,3.3c2.2,0,3.1-1.3,3.1-3.3
				C830.4,1643.1,829.5,1641.9,827.3,1641.9z"/>
			<path class="st0" d="M846.3,1649.6c-1.4,1.3-2.6,2-4.4,2c-3.1,0-4.5-1.5-4.5-4.5v-4.9l0.2-0.3h-2v-3h2l-0.2-0.3v-1.3l3.8-2v3.3
				l-0.2,0.3h3.9v3h-3.9l0.2,0.3v4.9c0,0.9,0.5,1.3,1.1,1.3c0.7,0,1.2-0.3,1.8-0.9L846.3,1649.6z"/>
			<path class="st0" d="M854.3,1651.6c-4.6,0-6.9-2.9-6.9-6.5s2.3-6.5,6.9-6.5c4.6,0,7,2.8,7,6.5
				C861.3,1648.7,858.9,1651.6,854.3,1651.6z M854.3,1641.9c-2.2,0-3.1,1.2-3.1,3.2c0,2,1,3.3,3.1,3.3c2.2,0,3.1-1.3,3.1-3.3
				C857.4,1643.1,856.5,1641.9,854.3,1641.9z"/>
			<path class="st0" d="M876.7,1638.8v11.2c0,3.6-2.3,5.7-6.7,5.7c-2.6,0-4.5-0.6-6.3-1.7l2.5-2.5c1.1,0.7,2.5,1,3.8,1
				c1.8,0,2.8-0.9,2.8-2.3v-0.2h0c-0.7,0.4-1.9,0.8-3,0.8c-4.4,0-6.7-2.5-6.7-6.2c0-3.3,2.3-6.1,6.7-6.1c1,0,2.5,0.4,3,0.9h0v-0.7
				H876.7z M870,1641.8c-2.1,0-3.1,1.2-3.1,2.9c0,1.7,1,2.8,3.1,2.8c2.3,0,3.1-1.1,3.1-2.8C873.1,1643,872.1,1641.8,870,1641.8z"/>
			<path class="st0" d="M888,1641.9h-1.1c-2.4,0-3.3,1.1-3.3,3.2v6.2h-3.8v-12.6h3.8v1.5h0c0.7-1.1,1.9-1.6,3.6-1.6h0.8V1641.9z"/>
			<path class="st0" d="M902.3,1651.4h-3.8v-0.6h0c-0.9,0.5-2.2,0.8-3.5,0.8c-2.4,0-5.7-0.8-5.7-4.2c0-3.7,5.2-4.1,8.3-4.1h1.2
				l-0.3-0.3c0-0.8-0.8-1.3-2.1-1.3c-1.3,0-2.6,0.4-3.7,1l-2.3-2.3c1.6-1.1,3.8-1.8,6.1-1.8c4,0,6,1.9,6,5.2V1651.4z M898.8,1646.1
				h-0.6c-0.5,0-0.9,0-1.6,0c-0.6,0-1.3,0.1-1.9,0.2c-1.3,0.3-1.6,0.7-1.6,1.1c0,0.5,0.7,1.1,2.2,1.1c0.9,0,3.2-0.1,3.2-1.2v-0.9
				L898.8,1646.1z"/>
			<path class="st0" d="M913.7,1641.8h-3.9l0.2,0.4v9.3h-3.8v-9.3l0.2-0.4h-2.1v-3h2.1l-0.2-0.4c0-2.8,2.2-4,4.8-4
				c1.1,0,2.1,0.1,2.7,0.3v3c-0.6-0.2-1.3-0.4-2-0.4c-1.3,0-1.7,0.4-1.7,1.1l-0.2,0.4h3.8V1641.8z"/>
			<path class="st0" d="M917.4,1638.2c-1.2,0-2-0.9-2-2c0-1.2,0.8-2,2-2c1.2,0,2,0.9,2,2S918.6,1638.2,917.4,1638.2z M919.3,1651.4
				h-3.8v-12.6h3.8V1651.4z"/>
			<path class="st0" d="M926.4,1651.7c0,2.7-1.5,4-4.2,4c-0.9,0-1.7-0.3-2.5-0.5v-3.2c0.6,0.4,1.3,0.6,1.9,0.6c0.6,0,1-0.3,1-0.9
				v-12.8h3.8V1651.7z M924.5,1638.2c-1.2,0-2-0.9-2-2c0-1.2,0.8-2,2-2c1.2,0,2,0.9,2,2S925.7,1638.2,924.5,1638.2z"/>
			<path class="st0" d="M941.9,1651.4h-3.8v-0.6h0c-0.9,0.5-2.2,0.8-3.5,0.8c-2.4,0-5.7-0.8-5.7-4.2c0-3.7,5.2-4.1,8.3-4.1h1.2
				l-0.3-0.3c0-0.8-0.8-1.3-2.1-1.3c-1.3,0-2.6,0.4-3.7,1l-2.3-2.3c1.6-1.1,3.8-1.8,6.1-1.8c4,0,6,1.9,6,5.2V1651.4z M938.4,1646.1
				h-0.6c-0.5,0-0.9,0-1.6,0c-0.6,0-1.3,0.1-1.9,0.2c-1.3,0.3-1.6,0.7-1.6,1.1c0,0.5,0.7,1.1,2.2,1.1c0.9,0,3.2-0.1,3.2-1.2v-0.9
				L938.4,1646.1z"/>
		</g>
		<g>
			<circle class="st2" cx="852.4" cy="1563.4" r="52"/>
		</g>
		<g>
			<circle class="st1" cx="902.3" cy="1585.1" r="37"/>
		</g>
		<g id="Camera_1_">
			<g>
				<path class="st0" d="M808.5,1521.8h18.9c1,0,1.9-0.8,1.9-1.9c0-1-0.8-1.9-1.9-1.9h-18.9c-1,0-1.9,0.8-1.9,1.9
					C806.7,1521,807.5,1521.8,808.5,1521.8z M818,1536.9c-6.3,0-11.3,5.1-11.3,11.3c0,6.3,5.1,11.3,11.3,11.3s11.3-5.1,11.3-11.3
					C829.3,1542,824.2,1536.9,818,1536.9z M818,1555.8c-4.2,0-7.5-3.4-7.5-7.5s3.4-7.5,7.5-7.5s7.5,3.4,7.5,7.5
					S822.1,1555.8,818,1555.8z M846.3,1525.6c-3.1,0-5.7,2.5-5.7,5.7c0,3.1,2.5,5.7,5.7,5.7s5.7-2.5,5.7-5.7
					C851.9,1528.1,849.4,1525.6,846.3,1525.6z M846.3,1533.1c-1,0-1.9-0.8-1.9-1.9c0-1,0.8-1.9,1.9-1.9c1,0,1.9,0.8,1.9,1.9
					C848.2,1532.3,847.3,1533.1,846.3,1533.1z M851.9,1518h-7.5c-5.7,0-5.7-7.5-13.2-7.5c-7.5,0-13.2,0-13.2,0s-5.7,0-13.2,0
					c-7.5,0-7.5,7.5-13.2,7.5H784c-4.2,0-7.5,3.4-7.5,7.5v45.3c0,4.2,3.4,7.5,7.5,7.5h67.9c4.2,0,7.5-3.4,7.5-7.5v-45.3
					C859.5,1521.4,856.1,1518,851.9,1518z M855.7,1555.8h-16.4c-0.5,1.3-1,2.6-1.7,3.8h18.1v11.3c0,2.1-1.7,3.8-3.8,3.8H784
					c-2.1,0-3.8-1.7-3.8-3.8v-11.3h18.1c-0.7-1.2-1.3-2.5-1.7-3.8h-16.4v-30.2c0-2.1,1.7-3.8,3.8-3.8h7.5c7.5,0,7.5-7.5,13.2-7.5
					c3.8,0,13.2,0,13.2,0s9.4,0,13.2,0c5.7,0,5.7,7.5,13.2,7.5h7.5c2.1,0,3.8,1.7,3.8,3.8V1555.8z M846.3,1540.7
					c-1,0-1.9,0.8-1.9,1.9c0,1,0.8,1.9,1.9,1.9c1,0,1.9-0.8,1.9-1.9C848.2,1541.5,847.3,1540.7,846.3,1540.7z M818,1529.4
					c-10.4,0-18.9,8.4-18.9,18.9c0,10.4,8.4,18.9,18.9,18.9c10.4,0,18.9-8.4,18.9-18.9C836.8,1537.8,828.4,1529.4,818,1529.4z
					 M818,1563.3c-8.3,0-15.1-6.8-15.1-15.1c0-8.3,6.8-15.1,15.1-15.1c8.3,0,15.1,6.8,15.1,15.1
					C833.1,1556.6,826.3,1563.3,818,1563.3z"/>
			</g>
		</g>
		<g id="Desktop_1_">
			<g>
				<path class="st0" d="M917.7,1567.1h-32.7c-2,0-3.6,1.6-3.6,3.6v27.3c0,2,1.6,3.6,3.6,3.6h12.7v3.6h-2.7c-0.5,0-0.9,0.4-0.9,0.9
					c0,0.5,0.4,0.9,0.9,0.9h12.7c0.5,0,0.9-0.4,0.9-0.9c0-0.5-0.4-0.9-0.9-0.9h-2.7v-3.6h12.7c2,0,3.6-1.6,3.6-3.6v-27.3
					C921.3,1568.8,919.7,1567.1,917.7,1567.1z M903.1,1605.3h-3.6v-3.6h3.6V1605.3z M919.5,1598c0,1-0.8,1.8-1.8,1.8h-32.7
					c-1,0-1.8-0.8-1.8-1.8v-1.8h36.4V1598z M919.5,1594.4h-36.4v-23.6c0-1,0.8-1.8,1.8-1.8h32.7c1,0,1.8,0.8,1.8,1.8V1594.4z"/>
			</g>
		</g>
	</g>
	<g>
		<g>
			<path class="st0" d="M14.5,1080.5c-1.2,1.2-3.2,2.2-5.5,2.2c-4.7,0-7-2.9-7-6.4c0-3.6,2.5-6.6,7-6.6c2.5,0,4.2,0.9,5.4,2.1
				l-2.5,2.5c-0.8-0.9-1.6-1.3-2.9-1.3c-2.1,0-3.2,1.4-3.2,3.3c0,1.9,0.9,3.2,3.2,3.2c1.3,0,2.2-0.5,3-1.3L14.5,1080.5z"/>
			<path class="st0" d="M22.8,1082.7c-4.6,0-6.9-2.9-6.9-6.5s2.3-6.5,6.9-6.5c4.6,0,7,2.8,7,6.5
				C29.8,1079.8,27.4,1082.7,22.8,1082.7z M22.8,1072.9c-2.2,0-3.1,1.2-3.1,3.2c0,2,1,3.3,3.1,3.3c2.2,0,3.1-1.3,3.1-3.3
				C25.9,1074.2,25,1072.9,22.8,1072.9z"/>
			<path class="st0" d="M39.4,1082.7c-1.4,0-2.7-0.4-3.4-1h0v5h-3.8v-16.8H36v0.8h0c0.7-0.6,2-1,3.4-1c4.4,0,6.4,2.8,6.4,6.5
				C45.8,1079.9,43.8,1082.7,39.4,1082.7z M38.9,1072.9c-2.2,0-3.1,1.2-3.1,3.2c0,2.1,0.9,3.3,3.1,3.3c2.2,0,3.1-1.2,3.1-3.3
				S41.1,1072.9,38.9,1072.9z"/>
			<path class="st0" d="M62.6,1069.9l-6.2,13.7c-0.8,1.8-2.4,3.2-4.6,3.2c-1.1,0-2-0.2-3.4-0.8v-3.3c1.4,0.7,2.3,1,2.9,1
				c0.7,0,1.2-0.2,1.7-1.5l-6.1-12.3h4.2l3.1,6.4l0.7,1.9h0l0.6-1.9l2.8-6.4H62.6z"/>
			<path class="st0" d="M82.5,1069.9l-4.1,12.6h-3.6l-1.6-5.4l-0.4-2.4h0l-0.4,2.4l-1.7,5.4h-3.6l-4-12.6h4l1.5,5.4l0.5,2.3h0
				l0.5-2.3l1.7-5.4h3.2l1.7,5.4l0.5,2.3h0l0.4-2.3l1.5-5.4H82.5z"/>
			<path class="st0" d="M92.6,1073h-1.1c-2.4,0-3.3,1.1-3.3,3.2v6.2h-3.8v-12.6h3.8v1.5h0c0.7-1.1,1.9-1.6,3.6-1.6h0.8V1073z"/>
			<path class="st0" d="M96.3,1069.2c-1.2,0-2-0.9-2-2c0-1.2,0.8-2,2-2c1.2,0,2,0.9,2,2S97.5,1069.2,96.3,1069.2z M98.2,1082.5h-3.8
				v-12.6h3.8V1082.5z"/>
			<path class="st0" d="M110.9,1080.7c-1.4,1.3-2.6,2-4.4,2c-3.1,0-4.5-1.5-4.5-4.5v-4.9l0.2-0.3h-2v-3h2l-0.2-0.3v-1.3l3.8-2v3.3
				l-0.2,0.3h3.9v3h-3.9l0.2,0.3v4.9c0,0.9,0.5,1.3,1.1,1.3c0.7,0,1.2-0.3,1.8-0.9L110.9,1080.7z"/>
			<path class="st0" d="M114.5,1069.2c-1.2,0-2-0.9-2-2c0-1.2,0.8-2,2-2c1.2,0,2,0.9,2,2S115.6,1069.2,114.5,1069.2z M116.4,1082.5
				h-3.8v-12.6h3.8V1082.5z"/>
			<path class="st0" d="M132.5,1082.5h-3.8v-7.5c0-1.3-0.3-2.1-2.5-2.1c-1.7,0-2.9,0.8-2.9,2.2v7.3h-3.8v-12.6h3.8v1.1h0
				c0.9-0.8,2.2-1.2,3.6-1.2c3.5,0,5.6,1.9,5.6,5V1082.5z"/>
			<path class="st0" d="M148.4,1069.9v11.2c0,3.6-2.3,5.7-6.7,5.7c-2.6,0-4.5-0.6-6.3-1.7l2.5-2.5c1.1,0.7,2.5,1,3.8,1
				c1.8,0,2.8-0.9,2.8-2.3v-0.2h0c-0.7,0.4-1.9,0.8-3,0.8c-4.4,0-6.7-2.5-6.7-6.2c0-3.3,2.3-6.1,6.7-6.1c1,0,2.5,0.4,3,0.9h0v-0.7
				H148.4z M141.7,1072.9c-2.1,0-3.1,1.2-3.1,2.9c0,1.7,1,2.8,3.1,2.8c2.3,0,3.1-1.1,3.1-2.8
				C144.7,1074.1,143.8,1072.9,141.7,1072.9z"/>
		</g>
		<g>
			<circle class="st2" cx="75.5" cy="994.5" r="52"/>
		</g>
		<g id="Presentation_3_1_">
			<g>
				<path class="st0" d="M106.2,993.1h19.8c1.1,0,2-0.9,2-2c0-1.1-0.9-2-2-2h-19.8c-1.1,0-2,0.9-2,2
					C104.2,992.2,105.1,993.1,106.2,993.1z M106.2,985.2H118c1.1,0,2-0.9,2-2c0-1.1-0.9-2-2-2h-11.9c-1.1,0-2,0.9-2,2
					C104.2,984.3,105.1,985.2,106.2,985.2z M106.2,1001h7.9c1.1,0,2-0.9,2-2c0-1.1-0.9-2-2-2h-7.9c-1.1,0-2,0.9-2,2
					C104.2,1000.1,105.1,1001,106.2,1001z M106.2,1008.9h19.8c1.1,0,2-0.9,2-2c0-1.1-0.9-2-2-2h-19.8c-1.1,0-2,0.9-2,2
					C104.2,1008,105.1,1008.9,106.2,1008.9z M139.8,961.4h-35.6c0-2.2-1.8-4-4-4c-2.2,0-4,1.8-4,4H60.7c-2.2,0-4,1.8-4,4v4
					c0,2.2,1.8,4,4,4v47.5c0,2.2,1.8,4,4,4h33.6v5.1L87,1041.1c-0.4,0.4-0.6,0.9-0.6,1.4c0,1.1,0.9,2,2,2c0.5,0,1-0.2,1.4-0.6
					l10.5-10.5l10.5,10.5c0.4,0.4,0.9,0.6,1.4,0.6c1.1,0,2-0.9,2-2c0-0.5-0.2-1-0.6-1.4l-11.3-11.3v-5.1h33.6c2.2,0,4-1.8,4-4v-47.5
					c2.2,0,4-1.8,4-4v-4C143.7,963.2,142,961.4,139.8,961.4z M135.8,1020.8H64.6v-47.5h71.2V1020.8z M139.8,969.4H60.7v-4h79.1
					V969.4z M76.5,1008.9h15.8c2.2,0,4-1.8,4-4v-19.8c0-2.2-1.8-4-4-4H76.5c-2.2,0-4,1.8-4,4v19.8
					C72.5,1007.1,74.3,1008.9,76.5,1008.9z M76.5,985.2h15.8v19.8H76.5V985.2z"/>
			</g>
		</g>
	</g>
	<g>
		<g>
			<path class="st0" d="M430.8,1370c-4.6,0-6.9-2.9-6.9-6.5s2.3-6.5,6.9-6.5c4.6,0,7,2.8,7,6.5C437.8,1367.1,435.4,1370,430.8,1370z
				 M430.8,1360.2c-2.2,0-3.1,1.2-3.1,3.2c0,2,1,3.3,3.1,3.3c2.2,0,3.1-1.3,3.1-3.3C433.9,1361.5,433,1360.2,430.8,1360.2z"/>
			<path class="st0" d="M453.2,1369.8h-3.8v-7.5c0-1.3-0.3-2.1-2.5-2.1c-1.7,0-2.9,0.8-2.9,2.2v7.3h-3.8v-12.6h3.8v1.1h0
				c0.9-0.8,2.2-1.2,3.6-1.2c3.5,0,5.6,1.9,5.6,5V1369.8z"/>
			<path class="st0" d="M460,1369.8h-3.8V1353h3.8V1369.8z"/>
			<path class="st0" d="M464.9,1356.5c-1.2,0-2-0.9-2-2c0-1.2,0.8-2,2-2c1.2,0,2,0.9,2,2S466.1,1356.5,464.9,1356.5z M466.8,1369.8
				H463v-12.6h3.8V1369.8z"/>
			<path class="st0" d="M482.9,1369.8h-3.8v-7.5c0-1.3-0.3-2.1-2.5-2.1c-1.7,0-2.9,0.8-2.9,2.2v7.3h-3.8v-12.6h3.8v1.1h0
				c0.9-0.8,2.2-1.2,3.6-1.2c3.5,0,5.6,1.9,5.6,5V1369.8z"/>
			<path class="st0" d="M499,1364.9h-10l0.4,0.3c0.6,1,1.7,1.7,3.1,1.7c1.3,0,2.3-0.4,3.2-1l2.2,2.2c-1.4,1.2-3.1,1.9-5.4,1.9
				c-4.8,0-7.2-2.8-7.2-6.4c0-3.7,2.6-6.6,7-6.6c4.6,0,6.9,2.9,6.9,6.6C499.1,1363.9,499.1,1364.4,499,1364.9z M495.3,1361.9
				l-0.3-0.3c-0.5-1-1.4-1.6-2.8-1.6c-1.3,0-2.3,0.6-2.8,1.6l-0.4,0.3H495.3z"/>
			<path class="st0" d="M521.3,1357.2l-5.8,12.6h-3.3l-5.8-12.6h4.2l2.5,5.9l0.7,2.1h0l0.7-2.1l2.5-5.9H521.3z"/>
			<path class="st0" d="M524.9,1356.5c-1.2,0-2-0.9-2-2c0-1.2,0.8-2,2-2c1.2,0,2,0.9,2,2S526.1,1356.5,524.9,1356.5z M526.8,1369.8
				H523v-12.6h3.8V1369.8z"/>
			<path class="st0" d="M542.9,1369.8h-3.8v-0.8h0c-0.7,0.6-2,1-3.4,1c-4.4,0-6.4-2.7-6.4-6.5c0-3.8,2-6.5,6.4-6.5
				c1.4,0,2.7,0.4,3.4,1h0v-5h3.8V1369.8z M536.2,1360.2c-2.2,0-3.1,1.2-3.1,3.3c0,2.1,0.9,3.2,3.1,3.2c2.2,0,3.1-1.2,3.1-3.2
				C539.2,1361.4,538.4,1360.2,536.2,1360.2z"/>
			<path class="st0" d="M559.1,1364.9h-10l0.4,0.3c0.6,1,1.7,1.7,3.1,1.7c1.3,0,2.3-0.4,3.2-1l2.2,2.2c-1.4,1.2-3.1,1.9-5.4,1.9
				c-4.8,0-7.2-2.8-7.2-6.4c0-3.7,2.6-6.6,7-6.6c4.6,0,6.9,2.9,6.9,6.6C559.2,1363.9,559.2,1364.4,559.1,1364.9z M555.4,1361.9
				l-0.3-0.3c-0.5-1-1.4-1.6-2.8-1.6c-1.3,0-2.3,0.6-2.8,1.6l-0.4,0.3H555.4z"/>
			<path class="st0" d="M568,1370c-4.6,0-6.9-2.9-6.9-6.5s2.3-6.5,6.9-6.5c4.6,0,7,2.8,7,6.5C574.9,1367.1,572.6,1370,568,1370z
				 M568,1360.2c-2.2,0-3.1,1.2-3.1,3.2c0,2,1,3.3,3.1,3.3c2.2,0,3.1-1.3,3.1-3.3C571.1,1361.5,570.1,1360.2,568,1360.2z"/>
			<path class="st0" d="M441.7,1394c-1.4,0-2.7-0.4-3.4-1h0v5h-3.8v-16.8h3.8v0.8h0c0.7-0.6,2-1,3.4-1c4.4,0,6.4,2.8,6.4,6.5
				C448.2,1391.2,446.2,1394,441.7,1394z M441.3,1384.2c-2.2,0-3.1,1.2-3.1,3.2c0,2.1,0.9,3.3,3.1,3.3c2.2,0,3.1-1.2,3.1-3.3
				S443.5,1384.2,441.3,1384.2z"/>
			<path class="st0" d="M458.8,1384.3h-1.1c-2.4,0-3.3,1.1-3.3,3.2v6.2h-3.8v-12.6h3.8v1.5h0c0.7-1.1,1.9-1.6,3.6-1.6h0.8V1384.3z"
				/>
			<path class="st0" d="M467,1394c-4.6,0-6.9-2.9-6.9-6.5s2.3-6.5,6.9-6.5c4.6,0,7,2.8,7,6.5C474,1391.1,471.6,1394,467,1394z
				 M467,1384.2c-2.2,0-3.1,1.2-3.1,3.2c0,2,1,3.3,3.1,3.3c2.2,0,3.1-1.3,3.1-3.3C470.1,1385.5,469.2,1384.2,467,1384.2z"/>
			<path class="st0" d="M489.4,1393.8h-3.8v-0.8h0c-0.7,0.6-2,1-3.4,1c-4.4,0-6.4-2.7-6.4-6.5c0-3.8,2-6.5,6.4-6.5
				c1.4,0,2.7,0.4,3.4,1h0v-5h3.8V1393.8z M482.7,1384.2c-2.2,0-3.1,1.2-3.1,3.3c0,2.1,0.9,3.2,3.1,3.2c2.2,0,3.1-1.2,3.1-3.2
				C485.7,1385.4,484.9,1384.2,482.7,1384.2z"/>
			<path class="st0" d="M505.2,1393.8h-3.8v-1h0c-0.8,0.8-2,1.2-3.3,1.2c-3.9,0-5.7-2.1-5.7-5.2v-7.6h3.8v7.4c0,1.5,0.8,2.2,2.4,2.2
				c1.7,0,2.8-0.8,2.8-2.2v-7.3h3.8V1393.8z"/>
			<path class="st0" d="M512.1,1393.8h-3.8V1377h3.8V1393.8z M523,1393.8h-4.9l-5.8-6.4l5.8-6.2h4.7l-5.8,6.1v0L523,1393.8z"/>
			<path class="st0" d="M536,1391.8c-1.2,1.2-3.2,2.2-5.5,2.2c-4.7,0-7-2.9-7-6.4c0-3.6,2.5-6.6,7-6.6c2.5,0,4.2,0.9,5.4,2.1
				l-2.5,2.5c-0.8-0.9-1.6-1.3-2.9-1.3c-2.1,0-3.2,1.4-3.2,3.3c0,1.9,0.9,3.2,3.2,3.2c1.3,0,2.2-0.5,3-1.3L536,1391.8z"/>
			<path class="st0" d="M539.9,1380.5c-1.2,0-2-0.9-2-2c0-1.2,0.8-2,2-2c1.2,0,2,0.9,2,2S541.1,1380.5,539.9,1380.5z M541.8,1393.8
				H538v-12.6h3.8V1393.8z"/>
			<path class="st0" d="M548.9,1394c0,2.7-1.5,4-4.2,4c-0.9,0-1.7-0.3-2.5-0.5v-3.2c0.6,0.4,1.3,0.6,1.9,0.6c0.6,0,1-0.3,1-0.9
				v-12.8h3.8V1394z M547,1380.5c-1.2,0-2-0.9-2-2c0-1.2,0.8-2,2-2c1.2,0,2,0.9,2,2S548.1,1380.5,547,1380.5z"/>
			<path class="st0" d="M564.4,1393.8h-3.8v-0.6h0c-0.9,0.5-2.2,0.8-3.5,0.8c-2.4,0-5.7-0.8-5.7-4.2c0-3.7,5.2-4.1,8.3-4.1h1.2
				l-0.3-0.3c0-0.8-0.8-1.3-2.1-1.3c-1.3,0-2.6,0.4-3.7,1l-2.3-2.3c1.6-1.1,3.8-1.8,6.1-1.8c4,0,6,1.9,6,5.2V1393.8z M560.9,1388.5
				h-0.6c-0.5,0-0.9,0-1.6,0c-0.6,0-1.3,0.1-1.9,0.2c-1.3,0.3-1.6,0.7-1.6,1.1c0,0.5,0.7,1.1,2.2,1.1c0.9,0,3.2-0.1,3.2-1.2v-0.9
				L560.9,1388.5z"/>
		</g>
		<g>
			<circle class="st2" cx="499.4" cy="1281.8" r="52"/>
		</g>
		<g id="Podcasts_2_1_">
			<g>
				<path class="st0" d="M529.5,1288.3c-10.3,0-12.4,6.2-12.4,12.4c0,6.2,2.1,20.6,4.1,24.8c2.1,4.1,4.1,4.1,4.1,4.1h8.3
					c0,0,2.1,0,4.1-4.1c2.1-4.1,4.1-18.6,4.1-24.8C541.9,1294.5,539.8,1288.3,529.5,1288.3z M534.1,1323.6c-0.5,1.1-1,1.6-1.2,1.8
					h-6.7c-0.2-0.2-0.7-0.8-1.2-1.8c-1.5-3-3.7-16.5-3.7-22.9c0-6.1,2.2-8.3,8.3-8.3c6.1,0,8.3,2.2,8.3,8.3
					C537.8,1307,535.6,1320.5,534.1,1323.6z M529.5,1238.8c-20.5,0-37.1,16.6-37.1,37.1c0,14.8,8.7,27.6,21.3,33.5
					c-0.2-1.7-0.3-3.4-0.5-4.9c-10-5.7-16.7-16.4-16.7-28.7c0-18.2,14.8-33,33-33c18.2,0,33,14.8,33,33c0,12.3-6.7,23-16.6,28.6
					c-0.1,1.5-0.2,3.1-0.4,4.9c12.5-6,21.2-18.7,21.2-33.5C566.7,1255.4,550,1238.8,529.5,1238.8z M529.5,1253.2
					c-12.5,0-22.7,10.2-22.7,22.7c0,6.7,2.9,12.7,7.6,16.9c0.6-1.4,1.3-2.6,2.2-3.6c-3.5-3.4-5.6-8.1-5.6-13.3
					c0-10.3,8.3-18.6,18.6-18.6c10.3,0,18.6,8.3,18.6,18.6c0,5.3-2.2,10-5.8,13.4c0.9,1,1.6,2.3,2.2,3.6c4.7-4.2,7.7-10.2,7.7-17
					C552.2,1263.4,542.1,1253.2,529.5,1253.2z M537.8,1275.9c0-4.6-3.7-8.3-8.3-8.3c-4.6,0-8.3,3.7-8.3,8.3c0,4.6,3.7,8.3,8.3,8.3
					C534.1,1284.1,537.8,1280.5,537.8,1275.9z M525.4,1275.9c0-2.3,1.8-4.1,4.1-4.1c2.3,0,4.1,1.8,4.1,4.1s-1.8,4.1-4.1,4.1
					C527.3,1280,525.4,1278.2,525.4,1275.9z"/>
			</g>
		</g>
	</g>
	<g>
		<g>
			<path class="st0" d="M1138.8,1364.8h-3.8v-0.6h0c-0.9,0.5-2.2,0.8-3.5,0.8c-2.4,0-5.7-0.8-5.7-4.2c0-3.7,5.2-4.1,8.3-4.1h1.2
				l-0.3-0.3c0-0.8-0.8-1.3-2.1-1.3c-1.3,0-2.6,0.4-3.7,1l-2.3-2.3c1.6-1.1,3.8-1.8,6.1-1.8c4,0,6,1.9,6,5.2V1364.8z M1135.3,1359.5
				h-0.6c-0.5,0-0.9,0-1.6,0c-0.6,0-1.3,0.1-1.9,0.2c-1.3,0.3-1.6,0.7-1.6,1.1c0,0.5,0.7,1.1,2.2,1.1c0.9,0,3.2-0.1,3.2-1.2v-0.9
				L1135.3,1359.5z"/>
			<path class="st0" d="M1154.8,1364.7h-3.8v-7.5c0-1.3-0.3-2.1-2.5-2.1c-1.7,0-2.9,0.8-2.9,2.2v7.3h-3.8v-12.6h3.8v1.1h0
				c0.9-0.8,2.2-1.2,3.6-1.2c3.5,0,5.6,1.9,5.6,5V1364.7z"/>
			<path class="st0" d="M1159.6,1351.5c-1.2,0-2-0.9-2-2c0-1.2,0.8-2,2-2c1.2,0,2,0.9,2,2S1160.8,1351.5,1159.6,1351.5z
				 M1161.5,1364.7h-3.8v-12.6h3.8V1364.7z"/>
			<path class="st0" d="M1183.1,1364.7h-3.8v-6.9c0-2.1-0.4-2.6-1.6-2.6c-1.2,0-1.9,0.9-1.9,2.1l0,7.4h-3.9v-7.3
				c0-1.7-0.3-2.2-1.6-2.2c-1.2,0-1.9,0.9-1.9,2.2v7.4h-3.9v-12.6h3.9v0.9h0c0.7-0.6,1.8-1,2.8-1c1.4,0,2.5,0.7,3.1,1.6h0
				c0.9-0.9,2.2-1.6,3.6-1.6c3.5,0,5.1,2.1,5.1,5.5L1183.1,1364.7z"/>
			<path class="st0" d="M1198.5,1364.8h-3.8v-0.6h0c-0.9,0.5-2.2,0.8-3.5,0.8c-2.4,0-5.7-0.8-5.7-4.2c0-3.7,5.2-4.1,8.3-4.1h1.2
				l-0.3-0.3c0-0.8-0.8-1.3-2.1-1.3c-1.3,0-2.6,0.4-3.7,1l-2.3-2.3c1.6-1.1,3.8-1.8,6.1-1.8c4,0,6,1.9,6,5.2V1364.8z M1195,1359.5
				h-0.6c-0.5,0-0.9,0-1.6,0c-0.6,0-1.3,0.1-1.9,0.2c-1.3,0.3-1.6,0.7-1.6,1.1c0,0.5,0.7,1.1,2.2,1.1c0.9,0,3.2-0.1,3.2-1.2v-0.9
				L1195,1359.5z"/>
			<path class="st0" d="M1213.3,1362.8c-1.2,1.2-3.2,2.2-5.5,2.2c-4.7,0-7-2.9-7-6.4c0-3.6,2.5-6.6,7-6.6c2.5,0,4.2,0.9,5.4,2.1
				l-2.5,2.5c-0.8-0.9-1.6-1.3-2.9-1.3c-2.1,0-3.2,1.4-3.2,3.3c0,1.9,0.9,3.2,3.2,3.2c1.3,0,2.2-0.5,3-1.3L1213.3,1362.8z"/>
			<path class="st0" d="M1217.2,1351.5c-1.2,0-2-0.9-2-2c0-1.2,0.8-2,2-2c1.2,0,2,0.9,2,2S1218.4,1351.5,1217.2,1351.5z
				 M1219.1,1364.7h-3.8v-12.6h3.8V1364.7z"/>
			<path class="st0" d="M1226.2,1365c0,2.7-1.5,4-4.2,4c-0.9,0-1.7-0.3-2.5-0.5v-3.2c0.6,0.4,1.3,0.6,1.9,0.6c0.6,0,1-0.3,1-0.9
				v-12.8h3.8V1365z M1224.3,1351.5c-1.2,0-2-0.9-2-2c0-1.2,0.8-2,2-2c1.2,0,2,0.9,2,2S1225.4,1351.5,1224.3,1351.5z"/>
			<path class="st0" d="M1241.7,1364.8h-3.8v-0.6h0c-0.9,0.5-2.2,0.8-3.5,0.8c-2.4,0-5.7-0.8-5.7-4.2c0-3.7,5.2-4.1,8.3-4.1h1.2
				l-0.3-0.3c0-0.8-0.8-1.3-2.1-1.3c-1.3,0-2.6,0.4-3.7,1l-2.3-2.3c1.6-1.1,3.8-1.8,6.1-1.8c4,0,6,1.9,6,5.2V1364.8z M1238.2,1359.5
				h-0.6c-0.5,0-0.9,0-1.6,0c-0.6,0-1.3,0.1-1.9,0.2c-1.3,0.3-1.6,0.7-1.6,1.1c0,0.5,0.7,1.1,2.2,1.1c0.9,0,3.2-0.1,3.2-1.2v-0.9
				L1238.2,1359.5z"/>
		</g>
		<g>
			<circle class="st2" cx="1183.9" cy="1276.7" r="52"/>
		</g>
		<g id="Rocket_1_">
			<g>
				<path class="st0" d="M1245.9,1229.3c-0.4-0.4-1.3-0.5-2.6-0.5c-6.8,0-24.6,5-34.1,14.5c-2.2,2.2-9.7,9.1-11.4,11.4
					c-5.6,1.5-13.7,4.6-18.3,9.1c0,0,5.5,0,12.3,4.3c-1,4,0.3,8.2,3.7,11.7c2.7,2.7,5.8,4,9,4c0.9,0,1.8-0.1,2.7-0.3
					c4.3,6.8,4.3,12.3,4.3,12.3c4.5-4.5,7.6-12.7,9.1-18.3c2.3-1.7,9.2-9.2,11.4-11.4C1243.3,1254.7,1248.1,1231.6,1245.9,1229.3z
					 M1217.4,1276.6c-1.2,4.3-2.7,8.3-4.5,11.4c-0.7-1.9-1.7-4.1-3.2-6.3c-0.6-0.9-1.6-1.5-2.7-1.5c-0.3,0-0.5,0-0.8,0.1
					c-0.6,0.2-1.3,0.2-1.9,0.2c-2.4,0-4.7-1.1-6.7-3.1c-2.6-2.6-3.6-5.6-2.8-8.6c0.3-1.3-0.2-2.7-1.4-3.5c-2.3-1.4-4.4-2.5-6.3-3.2
					c3.2-1.7,7.1-3.3,11.4-4.5c0.1,0,0.2-0.1,0.2-0.1l18.7,18.7C1217.5,1276.5,1217.5,1276.5,1217.4,1276.6z M1229.7,1263.8
					c-0.6,0.6-1.6,1.7-2.8,2.9c-2.1,2.2-5.3,5.5-7.2,7.3l-18.5-18.5c1.7-1.9,5.1-5.1,7.3-7.2c1.2-1.2,2.3-2.2,2.9-2.8
					c8.7-8.7,25.5-13.5,31.8-13.5C1243.2,1237.2,1238.8,1254.7,1229.7,1263.8z M1187.9,1268.4l-12.5,31.4l31.4-12.5
					c-0.6,0.1-1.1,0.1-1.7,0.1C1195.5,1287.3,1186.8,1278.1,1187.9,1268.4z M1181.2,1294l5.8-14.6c0.8,1.4,1.8,2.8,2.9,4.1
					c1.7,1.9,3.7,3.5,5.9,4.7L1181.2,1294z M1219,1267.5c0.9,0,1.6-0.7,1.6-1.6s-0.7-1.6-1.6-1.6s-1.6,0.7-1.6,1.6
					S1218.1,1267.5,1219,1267.5z M1214.1,1262.6c0.9,0,1.6-0.7,1.6-1.6s-0.7-1.6-1.6-1.6c-0.9,0-1.6,0.7-1.6,1.6
					S1213.3,1262.6,1214.1,1262.6z M1209.3,1254.6c-0.9,0-1.6,0.7-1.6,1.6c0,0.9,0.7,1.6,1.6,1.6c0.9,0,1.6-0.7,1.6-1.6
					C1210.9,1255.3,1210.2,1254.6,1209.3,1254.6z M1228.7,1251.3c2.7,0,4.8-2.2,4.8-4.8c0-2.7-2.2-4.8-4.8-4.8
					c-2.7,0-4.8,2.2-4.8,4.8C1223.8,1249.2,1226,1251.3,1228.7,1251.3z M1228.7,1244.9c0.9,0,1.6,0.7,1.6,1.6c0,0.9-0.7,1.6-1.6,1.6
					c-0.9,0-1.6-0.7-1.6-1.6C1227.1,1245.6,1227.8,1244.9,1228.7,1244.9z"/>
			</g>
		</g>
	</g>
	<g>
		<g>
			<path class="st0" d="M732.4,902.4c-0.3-59.6,48.5-109.6,110.1-108.8c59.1,0.7,107.7,48.8,107.4,109.3
				c-0.3,60.7-49.9,108.5-109.6,108.2C780.9,1010.8,732.4,962.2,732.4,902.4z M842.7,1002.2c55-0.2,98.7-44.2,99.8-97.6
				c1.2-56.7-44.5-101.3-98.4-102.1c-54.6-0.7-101.1,43.3-101.2,99.8C742.7,957.2,787.7,1002.2,842.7,1002.2z"/>
		</g>
		<g>
			<path class="st0" d="M841.7,807.5c52.4-0.1,95,42.4,94.9,94.9c0,51.7-41.4,94.7-94.8,94.8c-53.5,0.1-95-43.3-94.9-94.9
				C747.1,849.9,789.3,807.5,841.7,807.5z M841.7,809.6c-50.9,0-92.6,41.5-92.6,92.6c0,50.9,41,92.9,92.8,92.8
				c51.4-0.1,92.6-41.5,92.7-92.8C934.6,851.1,892.8,809.6,841.7,809.6z"/>
		</g>
		<g>
			<path class="st0" d="M841.5,985.9c-17,0.2-29.3-4.9-41-11.5c-9.9-5.6-18.7-12.8-25.6-21.8c-3.7-4.8-6.3-10.6-8.7-16.2
				c-6.1-14.2-8.5-29.1-7.1-44.5c0.9-10,4.8-19.1,9.4-27.9c5.9-11.3,13.7-21.3,23.9-29c5-3.8,11-6.4,16.8-8.9
				c13.6-5.9,28-8,42.8-7.1c8.8,0.5,16.9,3.8,24.9,7.5c12.9,6,24,14.5,32.8,25.6c3.6,4.6,6.1,10.2,8.5,15.6
				c6.2,14.1,8.4,28.9,7.5,44.2c-0.5,7.9-3.3,15.1-6.3,22.2c-6,14.1-15.1,26-26.9,35.6c-6,4.8-13.3,7.9-20.6,10.5
				C860.8,984.1,849.7,986,841.5,985.9z M791.5,838c-2,2-3.8,3.6-5.5,5.3c-12.3,12.6-20.4,27.5-24.5,44.6c-0.3,1.3-0.1,2.2,1,3
				c4,3,7.8,6.4,12.1,9.1c14.2,9.2,30,14.4,46.7,17c3.4,0.5,6.8,0.9,10.8,1.3C809.4,895.9,794.5,870.2,791.5,838z M832.4,983.5
				c8.6,0.5,16.7,0.1,24.8-1.6c11.4-2.3,22-6.5,31.8-12.7c0.6-0.4,1.2-1.4,1.2-2c-0.5-5.2-0.9-10.5-2-15.6
				c-3.4-16.1-10.6-30.5-20.1-43.8c-2.2-3.1-4.7-6.1-7-9.1C860.5,930,853,958.7,832.4,983.5z M892.7,966.2c0.3-0.1,0.5-0.1,0.6-0.3
				c1.8-1.7,3.6-3.3,5.2-5c12.2-12.7,20.3-27.6,24.1-44.7c0.1-0.6-0.2-1.7-0.6-2.1c-4.7-3.6-9.2-7.6-14.3-10.7
				c-14.4-9-30.4-13.9-47.1-16.2c-2.6-0.4-5.2-0.6-8.4-0.9C874.8,908.7,889.7,934.4,892.7,966.2z M851.6,821.3
				c-0.3-0.2-0.4-0.2-0.4-0.2c-20.3-1.1-39,3.8-56.1,14.6c-0.6,0.4-1.1,1.5-1,2.2c0.5,4.9,0.9,9.9,1.9,14.8
				c4.3,19.8,13.8,37,26.6,52.4c0.3,0.4,0.7,0.7,1.3,1.1C823.6,874.5,831.4,845.9,851.6,821.3z M857.9,912.6
				c-22.4,22.5-48.1,37.3-79.8,40.3c0.2,0.4,0.2,0.5,0.3,0.6c13.5,15.1,30.2,25,49.9,29.5c0.6,0.1,1.7-0.4,2.2-1
				c10.1-11.1,16.9-24.1,21.4-38.3C855.1,933.8,857.1,923.6,857.9,912.6z M761,892.8c-0.1,1-0.3,1.8-0.2,2.6
				c0.2,5.6,0.2,11.2,0.9,16.8c1.7,13.4,6.4,25.9,13.6,37.3c0.4,0.6,1.3,1.1,1.9,1.1c4.5-0.5,9.1-0.8,13.6-1.7
				c20.2-4.2,37.9-13.7,53.7-26.7c0.4-0.3,0.7-0.7,1.1-1.2C814.2,920.8,785.7,913.3,761,892.8z M838.3,883.7
				c31.7,0,60.3,7.6,85,28.1c0.1-0.9,0.1-1.4,0.1-1.9c0.3-7.7-0.2-15.4-1.7-23c-2.3-11.3-6.5-21.9-12.6-31.6
				c-0.4-0.6-1.2-1.3-1.8-1.3c-3.9,0.3-7.7,0.6-11.5,1.3c-11.2,1.9-21.8,5.8-31.8,11C854.9,871,846.5,876.7,838.3,883.7z
				 M826.3,891.9c22.5-22.5,48.2-37.3,79.9-40.3c-0.2-0.3-0.3-0.6-0.5-0.8c-13.5-15-30.1-24.9-49.8-29.3c-0.6-0.1-1.6,0.3-2,0.8
				c-2.1,2.4-4.1,4.9-6,7.4c-11,15.3-17.2,32.6-20.2,51.1C827.2,884.4,826.8,887.8,826.3,891.9z M826,902.2
				c-0.9,4.7,0.6,8.5,4.4,11.4c0.3,0.2,0.6,0.6,0.9,0.9c2.5,3.3,5.7,4.4,9.9,4.3c7.4-0.2,7.2-0.1,12.7-5.1c3.4-3.1,4.5-6.5,4.7-11
				c0.1-5.1-1.4-8.8-5.1-12.4c-3.2-3.1-6.3-4.6-10.9-4.7c-4.8-0.1-8.5,1.2-11.8,4.8c-3.1,3.3-5.6,6.4-4.7,11.1
				C826,901.8,826,902,826,902.2z"/>
		</g>
	</g>
	<g>
		<g>
			
				<rect x="663.9" y="580.2" transform="matrix(1.786721e-002 0.9998 -0.9998 1.786721e-002 1402.2793 -266.1422)" class="st3" width="345.4" height="1"/>
		</g>
		<g>
			
				<rect x="1041.5" y="611.7" transform="matrix(0.6432 0.7657 -0.7657 0.6432 930.1735 -537.7253)" class="st3" width="1" height="234.8"/>
		</g>
		<g>
			
				<rect x="987.1" y="955.5" transform="matrix(0.9924 0.1229 -0.1229 0.9924 126.4396 -137.6673)" class="st3" width="383.9" height="1"/>
		</g>
		<g>
			
				<rect x="896.9" y="1106.2" transform="matrix(0.6635 0.7482 -0.7482 0.6635 1172.2972 -392.8577)" class="st3" width="251.9" height="1"/>
		</g>
		<g>
			
				<rect x="823.1" y="1051.1" transform="matrix(0.9996 2.734688e-002 -2.734688e-002 0.9996 34.6015 -22.0543)" class="st3" width="1" height="405.8"/>
		</g>
		<g>
			
				<rect x="635.9" y="964" transform="matrix(0.7206 0.6933 -0.6933 0.7206 937.9612 -134.9469)" class="st3" width="1" height="264.8"/>
		</g>
		<g>
			
				<rect x="444.1" y="709.2" transform="matrix(0.1587 0.9873 -0.9873 0.1587 1321.4615 368.3628)" class="st3" width="1" height="500.8"/>
		</g>
		<g>
			
				<rect x="430.7" y="725.8" transform="matrix(0.8231 0.5679 -0.5679 0.8231 516.5947 -205.7549)" class="st3" width="315.6" height="1"/>
		</g>
	</g>
	<g>
		
			<rect x="1097.2" y="718.8" transform="matrix(0.2636 0.9646 -0.9646 0.2636 1614.8878 -443.0938)" class="st3" width="1" height="234.8"/>
	</g>
	<g>
		
			<rect x="1096.5" y="-3.1" transform="matrix(0.8823 0.4707 -0.4707 0.8823 320.355 -468.5439)" class="st3" width="1" height="818.7"/>
	</g>
	<g>
		<rect x="333.6" y="466.6" transform="matrix(0.37 0.929 -0.929 0.37 847.801 -315.9645)" class="st3" width="646.6" height="1"/>
	</g>
	<g>
		
			<rect x="119.1" y="791.8" transform="matrix(0.971 0.239 -0.239 0.971 201.2182 -74.9462)" class="st3" width="581.1" height="1"/>
	</g>
	<g>
		
			<rect x="515.2" y="856" transform="matrix(0.4996 0.8663 -0.8663 0.4996 1183.1974 87.7376)" class="st3" width="1" height="423.8"/>
	</g>
	<g>
		
			<rect x="663.4" y="1020.9" transform="matrix(0.9594 0.2822 -0.2822 0.9594 427.5192 -129.6713)" class="st3" width="1" height="796.9"/>
	</g>
	<g>
		
			<rect x="715.4" y="1315.3" transform="matrix(0.4357 0.9001 -0.9001 0.4357 1758.2329 -172.7026)" class="st3" width="602.9" height="1"/>
	</g>
	<g>
		
			<rect x="959" y="1027.2" transform="matrix(0.8732 0.4874 -0.4874 0.8732 639.5269 -402.6336)" class="st3" width="268.9" height="1"/>
	</g>
	<g>
		<circle class="st2" cx="73.2" cy="704.7" r="19.3"/>
	</g>
	<g>
		<circle class="st2" cx="1246.4" cy="792.1" r="19.3"/>
	</g>
	<g>
		<circle class="st2" cx="544.7" cy="1840.2" r="19.3"/>
	</g>
	<g>
		<circle class="st2" cx="1309" cy="19.3" r="19.3"/>
	</g>
	<g>
		<circle class="st1" cx="1235.9" cy="1106.7" r="19.3"/>
	</g>
	<g>
		<circle class="st1" cx="1164.7" cy="1615.4" r="19.3"/>
	</g>
	<g>
		<circle class="st1" cx="520.4" cy="132.4" r="19.3"/>
	</g>
</g>
</svg>
